<svg width="51" height="51" viewBox="0 0 51 51" fill="none" xmlns="http://www.w3.org/2000/svg">
<circle cx="25.5" cy="25.5" r="25" stroke="white"/>
<mask id="path-2-outside-1_135:902" maskUnits="userSpaceOnUse" x="19" y="30.8103" width="13" height="7" fill="black">
<rect fill="white" x="19" y="30.8103" width="13" height="7"/>
<path fill-rule="evenodd" clip-rule="evenodd" d="M20.061 32.2089C19.9756 32.1136 19.9802 31.967 20.073 31.8774C20.1671 31.7865 20.3165 31.7883 20.4085 31.8807C20.4093 31.8815 20.4101 31.8823 20.4109 31.8831L25.5011 36.9738L30.5914 31.8831C30.6849 31.7896 30.8364 31.7896 30.9299 31.8831C31.0201 31.9733 31.0233 32.1177 30.9393 32.2117C30.9363 32.2151 30.9332 32.2185 30.93 32.2218L26.9002 36.2513L25.6704 37.4811C25.577 37.5744 25.4257 37.5744 25.3323 37.4811L20.0728 32.2216C20.0687 32.2175 20.0648 32.2132 20.061 32.2089Z"/>
</mask>
<path fill-rule="evenodd" clip-rule="evenodd" d="M20.061 32.2089C19.9756 32.1136 19.9802 31.967 20.073 31.8774C20.1671 31.7865 20.3165 31.7883 20.4085 31.8807C20.4093 31.8815 20.4101 31.8823 20.4109 31.8831L25.5011 36.9738L30.5914 31.8831C30.6849 31.7896 30.8364 31.7896 30.9299 31.8831C31.0201 31.9733 31.0233 32.1177 30.9393 32.2117C30.9363 32.2151 30.9332 32.2185 30.93 32.2218L26.9002 36.2513L25.6704 37.4811C25.577 37.5744 25.4257 37.5744 25.3323 37.4811L20.0728 32.2216C20.0687 32.2175 20.0648 32.2132 20.061 32.2089Z" fill="white"/>
<path d="M20.073 31.8774L19.9341 31.7335L19.934 31.7336L20.073 31.8774ZM20.061 32.2089L20.2121 32.0778L20.2099 32.0754L20.061 32.2089ZM20.4085 31.8807L20.2667 32.0218L20.2689 32.0239L20.4085 31.8807ZM20.4109 31.8831L20.2693 32.0243L20.2695 32.0245L20.4109 31.8831ZM25.5011 36.9738L25.3597 37.1152L25.5011 37.2566L25.6426 37.1152L25.5011 36.9738ZM30.5914 31.8831L30.4499 31.7416L30.4499 31.7417L30.5914 31.8831ZM30.9299 31.8831L30.7885 32.0245L30.9299 31.8831ZM30.9393 32.2117L30.7901 32.0784L30.7878 32.0811L30.9393 32.2117ZM30.93 32.2218L31.0715 32.3632L31.0739 32.3608L30.93 32.2218ZM26.9045 36.247L26.7631 36.1055L26.7631 36.1055L26.9045 36.247ZM25.6704 37.4811L25.8118 37.6225L25.8118 37.6225L25.6704 37.4811ZM25.3323 37.4811L25.1909 37.6225L25.1909 37.6226L25.3323 37.4811ZM20.0728 32.2216L20.2143 32.0802L20.214 32.0799L20.0728 32.2216ZM19.934 31.7336C19.7635 31.8982 19.7551 32.1674 19.9121 32.3424L20.2099 32.0754C20.196 32.0599 20.1968 32.0359 20.2119 32.0212L19.934 31.7336ZM20.5503 31.7397C20.3813 31.5698 20.1069 31.5666 19.9341 31.7335L20.2119 32.0213C20.2273 32.0064 20.2517 32.0067 20.2667 32.0218L20.5503 31.7397ZM20.2689 32.0239C20.269 32.0241 20.2692 32.0242 20.2693 32.0243L20.5525 31.7418C20.551 31.7404 20.5496 31.7389 20.5481 31.7375L20.2689 32.0239ZM20.2695 32.0245L25.3597 37.1152L25.6426 36.8324L20.5523 31.7417L20.2695 32.0245ZM25.6426 37.1152L30.7328 32.0245L30.4499 31.7417L25.3597 36.8324L25.6426 37.1152ZM30.7328 32.0245C30.7482 32.0091 30.7731 32.0091 30.7885 32.0245L31.0713 31.7416C30.8997 31.5701 30.6215 31.5701 30.4499 31.7416L30.7328 32.0245ZM30.7885 32.0245C30.8033 32.0393 30.8038 32.0631 30.7901 32.0784L31.0884 32.345C31.2427 32.1723 31.237 31.9073 31.0713 31.7416L30.7885 32.0245ZM31.0739 32.3608C31.0797 32.3547 31.0853 32.3486 31.0907 32.3423L30.7878 32.0811C30.7873 32.0816 30.7868 32.0822 30.7862 32.0828L31.0739 32.3608ZM27.0459 36.3884L31.0714 32.3632L30.7886 32.0804L26.7631 36.1055L27.0459 36.3884ZM26.7631 36.1055L25.529 37.3397L25.8118 37.6225L27.0459 36.3884L26.7631 36.1055ZM25.529 37.3397C25.5137 37.3549 25.489 37.3549 25.4737 37.3396L25.1909 37.6226C25.3624 37.7939 25.6403 37.794 25.8118 37.6225L25.529 37.3397ZM25.4737 37.3397L20.2143 32.0802L19.9314 32.363L25.1909 37.6225L25.4737 37.3397ZM20.214 32.0799C20.2133 32.0792 20.2127 32.0785 20.2121 32.0778L19.9099 32.3399C19.9169 32.348 19.9241 32.3557 19.9317 32.3633L20.214 32.0799Z" fill="white" mask="url(#path-2-outside-1_135:902)"/>
<rect x="25" y="14" width="1" height="23" rx="0.5" fill="white"/>
</svg>
