<svg width="48" height="58" viewBox="0 0 48 58" fill="none" xmlns="http://www.w3.org/2000/svg">
<path fill-rule="evenodd" clip-rule="evenodd" d="M1.52055 0.269614C0.849037 0.588268 0.542921 0.90182 0.233874 1.58767C0.00620332 2.09286 0.00394913 2.24595 0.00146955 16.9125C-0.000897332 31.2201 0.00620319 31.736 0.209867 31.989C0.502909 32.3532 1.1857 32.3532 1.47874 31.989C1.6824 31.736 1.68962 31.2198 1.68962 16.9924V2.25775L1.96632 1.97946L2.2429 1.70107H7.38139H12.5199L12.7965 1.42267C12.9486 1.26958 13.0732 1.01216 13.0732 0.850563C13.0732 0.688968 12.9486 0.431549 12.7965 0.278459L12.5199 6.10352e-05L7.30193 0.00119504L2.0841 0.00232904L1.52055 0.269614ZM15.604 0.278459C15.4519 0.431549 15.3273 0.688968 15.3273 0.850563C15.3273 1.01216 15.4519 1.26958 15.604 1.42267L15.8806 1.70107H21.5212H27.1617V5.04637V8.39168H17.1481C7.59024 8.39168 7.12611 8.4011 6.94803 8.59909C6.68035 8.89666 6.70774 9.55494 6.99875 9.81996C7.22766 10.0285 7.5828 10.037 17.1989 10.0667L27.1617 10.0975V11.4056C27.1617 13.0112 27.2933 13.5703 27.8152 14.1838C28.597 15.1027 28.3967 15.077 34.7977 15.0798L40.4613 15.0823V23.6562C40.4613 30.4715 40.4325 32.2178 40.3204 32.1703C37.8252 31.1114 36.0226 30.7592 33.7552 30.8874C30.4366 31.075 27.5044 32.3686 25.0719 34.7182L24.1509 35.6078H15.6428C7.54324 35.6078 7.12554 35.6177 6.94803 35.8152C6.68035 36.1127 6.70773 36.771 6.99863 37.036C7.22642 37.2434 7.54832 37.2533 15.0905 37.2834L22.9453 37.3147L22.4248 38.3607C22.1384 38.9359 21.8472 39.5726 21.7775 39.7752L21.6507 40.1438H18.5629C15.6115 40.1438 15.4659 40.1539 15.2696 40.372C14.9883 40.6848 15.008 41.2337 15.3114 41.5393C15.5506 41.78 15.6493 41.7892 18.3735 41.8236L21.1885 41.8592L21.1038 42.504C21.0572 42.8587 21.0237 43.8378 21.0294 44.6798C21.0446 46.9416 21.4365 48.5839 22.4434 50.6049L22.8813 51.4838H12.5621H2.2429L1.96632 51.2054L1.68962 50.9271V43.1693C1.68962 35.4927 1.68714 35.4084 1.45597 35.1128C1.13295 34.6995 0.555657 34.6995 0.232635 35.1128C0.00135711 35.4085 -0.00101016 35.491 0.000116927 43.2492L0.00124425 51.0869L0.266898 51.6539C0.583609 52.3295 0.895248 52.6375 1.57691 52.9485C2.07621 53.1762 2.25575 53.1798 13.0584 53.1823L24.0328 53.1848L25.0412 54.1504C27.035 56.0594 29.2069 57.2315 31.7828 57.7887C33.069 58.0669 35.9827 58.0713 37.1745 57.7968C39.9382 57.1603 42.1216 55.9638 44.0179 54.0466C47.4707 50.5562 48.7656 45.7724 47.558 40.9693C47.4175 40.4101 47.2492 40.0144 47.0985 39.8886C46.5741 39.4509 45.7586 39.8022 45.7586 40.4658C45.7586 40.643 45.8681 41.1916 46.0018 41.6849C46.3485 42.9638 46.3544 45.9216 46.0128 47.1781C45.3859 49.4832 44.3569 51.3203 42.8351 52.8515C41.3132 54.3827 39.4873 55.418 37.1963 56.0487C35.9521 56.3912 33.0073 56.3865 31.7456 56.04C27.2526 54.8062 24.1995 51.7256 22.9628 47.1781C22.6271 45.9439 22.6271 42.9621 22.9628 41.7279C23.5897 39.4228 24.6187 37.5857 26.1405 36.0544C28.8056 33.3731 32.6596 32.0996 36.2708 32.7071C39.3892 33.2318 41.7247 34.6194 43.9677 37.2804C44.4479 37.8501 44.8921 37.9241 45.2882 37.5C45.6609 37.1007 45.5988 36.6783 45.0653 35.9824C44.5275 35.281 42.972 33.7783 42.4832 33.4877L42.1519 33.2909V23.7852C42.1519 14.61 42.1444 14.2648 41.9341 13.8587C41.6067 13.2265 28.7842 0.390045 28.2642 0.17413C27.9056 0.0251225 26.9838 6.10352e-05 21.863 6.10352e-05H15.8806L15.604 0.278459ZM34.291 13.3558L29.3595 13.3871L29.1059 13.0944L28.8524 12.8016V7.84714V2.89268L34.0374 8.10864L39.2225 13.3246L34.291 13.3558ZM6.94803 13.1351C6.68035 13.4327 6.70774 14.091 6.99875 14.356C7.22326 14.5604 7.46513 14.572 11.5039 14.572C15.7477 14.572 15.7733 14.5706 16.0193 14.3232C16.3229 14.0176 16.3427 13.4688 16.0613 13.156C15.8623 12.9347 15.7222 12.9277 11.4953 12.9277C7.41385 12.9277 7.12261 12.941 6.94803 13.1351ZM6.94803 17.6711C6.68035 17.9687 6.70774 18.627 6.99875 18.892C7.22935 19.102 7.62439 19.108 21.0841 19.108H34.9323L35.1797 18.8592C35.4833 18.5536 35.5032 18.0049 35.2217 17.692C35.0181 17.4655 34.903 17.4637 21.0755 17.4637C7.71287 17.4637 7.12678 17.4723 6.94803 17.6711ZM6.94803 22.2071C6.68035 22.5047 6.70773 23.163 6.99863 23.428C7.22529 23.6344 7.5296 23.6455 13.8457 23.6778C17.4811 23.6963 20.6233 23.6808 20.8282 23.6431C21.5759 23.5058 21.9016 22.7175 21.4136 22.2265C21.193 22.0046 21.0379 21.9997 14.1614 21.9997C7.49703 21.9997 7.12498 22.0104 6.94803 22.2071ZM23.5633 22.2985C23.2591 22.6875 23.2684 22.9361 23.6016 23.3258L23.8737 23.644H29.403H34.9323L35.1797 23.3952C35.4833 23.0896 35.5032 22.5409 35.2217 22.228C35.0212 22.005 34.8852 21.9997 29.4067 21.9997H23.7968L23.5633 22.2985ZM6.94803 26.7431C6.68035 27.0407 6.70774 27.699 6.99875 27.964C7.22935 28.174 7.62439 28.18 21.0841 28.18H34.9323L35.1797 27.9312C35.4833 27.6256 35.5032 27.0769 35.2217 26.764C35.0181 26.5375 34.903 26.5357 21.0755 26.5357C7.71287 26.5357 7.12678 26.5443 6.94803 26.7431ZM6.94803 31.2792C6.68035 31.5767 6.70773 32.235 6.99863 32.5C7.22371 32.705 7.50943 32.7178 12.6059 32.7502C15.5594 32.7689 18.1437 32.7534 18.3486 32.7155C19.0965 32.5774 19.422 31.7896 18.934 31.2985C18.7145 31.0776 18.5584 31.0717 12.9216 31.0717C7.45837 31.0717 7.12408 31.0833 6.94803 31.2792ZM33.9806 35.6152C33.2568 35.755 32.9428 35.9127 32.4163 36.401C31.6616 37.1009 31.4307 37.7604 31.3594 39.4182L31.3001 40.8017L29.9102 40.8413C27.98 40.8963 28.001 40.8727 28.0251 42.9607C28.0406 44.313 28.0824 44.6402 28.3372 45.4036C29.1029 47.6987 30.8885 49.2996 33.2762 49.8314C33.5826 49.8997 33.5861 49.9106 33.5861 50.8056V51.7106H32.749C31.9789 51.7106 31.8931 51.7345 31.6783 52.0094C31.3741 52.3984 31.3834 52.6469 31.7166 53.0367L31.9887 53.3549H34.4878H36.9869L37.2589 53.0367C37.5921 52.6469 37.6015 52.3984 37.2973 52.0094C37.0824 51.7345 36.9967 51.7106 36.2265 51.7106H35.3894V50.8056C35.3894 49.9106 35.3929 49.8997 35.6994 49.8314C37.6257 49.4023 39.3029 48.1606 40.147 46.5389C40.7825 45.3175 40.9354 44.6294 40.9531 42.9098C40.9738 40.8803 40.9882 40.8961 39.0653 40.8413L37.6754 40.8017L37.6161 39.4182C37.5694 38.3331 37.5025 37.9082 37.3056 37.4476C36.7616 36.175 35.2877 35.3628 33.9806 35.6152ZM35.4571 37.6943L35.8403 38.0799V41.051V44.0221L35.4571 44.4076C35.1195 44.7473 35.004 44.7932 34.4878 44.7932C33.9716 44.7932 33.856 44.7473 33.5185 44.4076L33.1353 44.0221V41.051V38.0799L33.5185 37.6943C33.856 37.3547 33.9716 37.3088 34.4878 37.3088C35.004 37.3088 35.1195 37.3547 35.4571 37.6943ZM6.94803 40.3512C6.68035 40.6487 6.70774 41.307 6.99875 41.572C7.21876 41.7723 7.44101 41.7881 10.0518 41.7881H12.8677L13.0831 41.5203C13.344 41.1961 13.3603 40.7366 13.1231 40.3959C12.9495 40.1465 12.917 40.1438 10.0411 40.1438C7.36843 40.1438 7.11957 40.1604 6.94803 40.3512ZM31.3822 43.3473C31.5721 45.3128 32.7366 46.4919 34.4878 46.4919C36.2389 46.4919 37.4034 45.3128 37.5933 43.3473L37.6727 42.5252H38.4603H39.2478L39.2033 43.6398C39.1645 44.6111 39.1129 44.8481 38.8018 45.4825C38.3409 46.4229 37.4498 47.318 36.5177 47.7771C35.8222 48.1195 35.7162 48.1385 34.4878 48.1385C33.2587 48.1385 33.1538 48.1198 32.459 47.7767C31.5221 47.314 30.6328 46.4221 30.1745 45.4854C29.8628 44.8483 29.811 44.6112 29.7723 43.6398L29.7278 42.5252H30.5152H31.3029L31.3822 43.3473Z" fill="url(#paint0_linear_103:863)"/>
<defs>
<linearGradient id="paint0_linear_103:863" x1="38.5" y1="5.93668e-05" x2="-9.5" y2="58.0001" gradientUnits="userSpaceOnUse">
<stop stop-color="#D351B2"/>
<stop offset="0.92527" stop-color="#9E32D7"/>
</linearGradient>
</defs>
</svg>
