<svg width="56" height="55" viewBox="0 0 56 55" fill="none" xmlns="http://www.w3.org/2000/svg">
<path fill-rule="evenodd" clip-rule="evenodd" d="M36.7601 0.0789026C34.6701 0.360653 31.3064 1.51707 30.8355 2.11557C30.5221 2.51414 30.5436 3.17553 30.8811 3.51295C31.2594 3.89128 31.6439 3.95636 32.1829 3.73334C35.221 2.47607 36.6039 2.15112 38.9295 2.14806C41.2304 2.145 43.3194 2.63445 45.4561 3.67723C49.6001 5.69958 52.5211 9.44676 53.4945 13.9892C53.8088 15.4557 53.8397 18.3425 53.5562 19.7546C52.3983 25.5235 48.1995 29.9795 42.5735 31.4103C38.2325 32.5142 33.6114 31.5814 30.0029 28.8729C28.9824 28.1069 27.3115 26.3534 26.6254 25.3285C23.7444 21.0249 23.2832 15.7263 25.3736 10.9497C25.8867 9.7774 25.9062 9.48133 25.5008 9.02742C25.1475 8.63214 24.5786 8.55415 24.1409 8.84094C23.6113 9.18798 22.5848 11.8001 22.2054 13.7665C21.6081 16.8616 21.9101 20.2582 23.0408 23.1622L23.3668 23.9993L17.1755 24.0522C10.5922 24.1084 10.3691 24.125 8.63581 24.6878C4.77805 25.9406 1.63297 29.1993 0.496453 33.1215C-0.769782 37.4911 0.424703 42.1495 3.63967 45.3794C5.43616 47.1843 7.53189 48.3106 10.1737 48.8909L10.4569 48.9531L10.5277 51.4625C10.5722 53.0431 10.6473 54.0794 10.7306 54.2622C10.963 54.7722 11.6656 55.0042 12.1672 54.7364C12.2986 54.6663 14.2764 53.3743 16.5623 51.8653L20.7186 49.1218L28.7576 49.0636C36.6131 49.0067 36.8163 48.9998 37.6531 48.765C40.087 48.082 41.7385 47.1256 43.4649 45.3993C45.2145 43.6495 46.1864 41.9567 46.8304 39.5371C47.0431 38.738 47.0733 38.3578 47.068 36.5437C47.062 34.4265 47.0593 34.4066 46.5282 32.6009C46.4726 32.4113 46.6104 32.2892 47.4264 31.8058C48.8786 30.9455 49.8073 30.2205 51.0155 29.0042C52.6455 27.363 53.75 25.7332 54.6195 23.686C58.8508 13.7234 52.8757 2.43506 42.2273 0.274137C40.9804 0.0210432 37.9828 -0.0859256 36.7601 0.0789026ZM26.8898 4.98054C26.4542 5.41618 26.4532 5.9484 26.8871 6.43392C27.7205 7.36678 29.1783 6.33854 28.6021 5.22423C28.259 4.56076 27.428 4.44253 26.8898 4.98054ZM37.6561 5.10086C36.8396 5.42428 36.157 6.07539 35.7343 6.93387L35.3748 7.66406V11.5602V15.4564L35.7576 16.2054C37.1342 18.8988 40.8487 18.873 42.181 16.1609L42.4842 15.5437V11.5515C42.4842 7.69086 42.4764 7.54243 42.2478 7.04784C41.9265 6.35254 41.1858 5.575 40.5198 5.23397C39.7544 4.84197 38.4612 4.78181 37.6561 5.10086ZM39.6744 7.28868C40.3167 7.68025 40.3514 7.89845 40.3514 11.5515C40.3514 15.2045 40.3167 15.4227 39.6744 15.8142C38.9924 16.2301 38.1212 16.0195 37.7556 15.3504C37.5822 15.0332 37.5623 14.6365 37.5623 11.4968C37.5623 8.24309 37.5769 7.97523 37.7694 7.69129C38.1952 7.06326 39.019 6.88903 39.6744 7.28868ZM31.597 13.7149C31.0401 13.994 30.9225 14.3027 30.9962 15.2931C31.1524 17.3942 32.2794 19.5218 33.9556 20.8807C34.7186 21.4992 36.1036 22.1912 36.9608 22.3824C37.2916 22.4562 37.6239 22.5334 37.6991 22.554C37.7999 22.5816 37.8358 22.9804 37.8358 24.0715V25.5515H36.0256C34.0491 25.5515 33.7194 25.629 33.4821 26.15C33.2597 26.638 33.3254 26.9692 33.7233 27.3671L34.0951 27.739H38.8694C43.9622 27.739 44.1136 27.7242 44.395 27.1981C44.618 26.7814 44.5293 26.2125 44.1879 25.8712L43.8682 25.5515H41.9458H40.0233V24.077V22.6025L40.3241 22.5362C42.1536 22.1328 43.2933 21.5252 44.5076 20.3055C46.0038 18.8028 46.7666 17.186 46.8843 15.2676C46.9386 14.3812 46.9273 14.3185 46.6554 13.9955C45.9119 13.1118 44.7264 13.7098 44.7264 14.9683C44.7264 15.2294 44.651 15.7323 44.5589 16.0859C44.0431 18.0662 42.4997 19.6314 40.4682 20.2345C39.6981 20.4631 38.166 20.464 37.3908 20.2364C35.9725 19.8198 34.6176 18.7698 33.916 17.5434C33.5221 16.8551 33.1326 15.4721 33.1326 14.7623C33.1326 14.3966 33.0644 14.2168 32.8319 13.97C32.4416 13.5557 32.0685 13.4787 31.597 13.7149ZM25.2091 27.1101C26.6109 29.0683 28.8081 30.9439 31.0696 32.1128C33.6658 33.4547 36.0014 34.0162 38.9842 34.0155C40.8647 34.0149 42.3171 33.82 43.7901 33.3706C44.0874 33.2798 44.3664 33.243 44.4103 33.2887C44.8543 33.751 45.0903 37.0735 44.786 38.5752C44.3844 40.5571 43.4267 42.3621 42.0128 43.8015C40.7012 45.1368 39.2626 45.9981 37.3909 46.5688C36.5851 46.8144 36.5055 46.817 28.3171 46.8754L20.0562 46.9343L16.5536 49.2536C14.6272 50.5292 12.9674 51.605 12.8652 51.6442C12.6962 51.7091 12.6786 51.5787 12.6703 50.1999C12.6583 48.239 12.5617 47.4788 12.2897 47.2067C12.1463 47.0635 11.7527 46.9376 11.0926 46.8241C6.69834 46.0689 3.50328 43.1139 2.42922 38.8118C2.13883 37.6482 2.16967 35.2715 2.49069 34.0827C3.64952 29.7917 7.24937 26.6996 11.5311 26.3173C12.0123 26.2743 15.1414 26.2321 18.4846 26.2235L24.5631 26.2077L25.2091 27.1101ZM9.06095 30.1216C8.50237 30.6207 8.61711 31.4932 9.2867 31.8394C9.72344 32.0652 12.3046 32.0727 12.8383 31.8498C13.5348 31.5588 13.6802 30.6915 13.1254 30.1368L12.8057 29.8171H11.1038H9.40177L9.06095 30.1216ZM17.1547 30.1216C16.5316 30.6783 16.7629 31.6588 17.5736 31.8978C17.8419 31.977 18.9635 32.007 20.8098 31.9845L23.6353 31.9499L23.9666 31.5789C24.2543 31.2567 24.29 31.1488 24.2376 30.7588C24.1976 30.4599 24.0816 30.2273 23.8911 30.0634C23.6089 29.8206 23.5609 29.8171 20.5501 29.8171H17.4955L17.1547 30.1216ZM9.19231 35.683C9.0522 35.7811 8.86681 36.0309 8.78019 36.2383C8.63855 36.5771 8.64248 36.6557 8.81902 37.016C8.92708 37.2365 9.1385 37.4782 9.28889 37.5529C9.50152 37.6586 12.0897 37.6893 20.9209 37.6905L32.2795 37.6921L32.6514 37.3202C33.0493 36.9223 33.1149 36.5911 32.8926 36.1031C32.6079 35.4782 33.1405 35.5046 20.803 35.5046C10.4812 35.5046 9.42375 35.5209 9.19231 35.683ZM9.21659 41.4022C8.60202 41.7797 8.52808 42.5985 9.06522 43.0788L9.40177 43.3796H15.3011C19.642 43.3796 21.2763 43.345 21.4873 43.2489C21.8157 43.0993 22.0858 42.6433 22.0858 42.2383C22.0858 42.0859 21.9422 41.8004 21.7667 41.604L21.4476 41.2468L15.505 41.2183C9.78666 41.1909 9.54931 41.1978 9.21659 41.4022ZM27.1595 41.2976C26.8325 41.4321 26.4608 41.9396 26.4608 42.2514C26.4608 42.6025 26.7401 43.127 27.0016 43.2669C27.1378 43.3399 29.0766 43.3787 32.4965 43.3772C37.3384 43.3749 37.8007 43.3589 38.0144 43.1858C38.5738 42.7325 38.6351 42.1213 38.173 41.604L37.8538 41.2468L32.6222 41.2248C29.7448 41.2127 27.2865 41.2455 27.1595 41.2976Z" fill="url(#paint0_linear_103:861)"/>
<defs>
<linearGradient id="paint0_linear_103:861" x1="50.5" y1="5.5" x2="4.31801e-07" y2="55" gradientUnits="userSpaceOnUse">
<stop stop-color="#D351B2"/>
<stop offset="1" stop-color="#9E32D7"/>
</linearGradient>
</defs>
</svg>
