<svg width="58" height="58" viewBox="0 0 58 58" fill="none" xmlns="http://www.w3.org/2000/svg">
<path fill-rule="evenodd" clip-rule="evenodd" d="M29.7692 0.0910985C29.0397 0.264194 27.977 0.889517 27.4597 1.44988C27.1966 1.73498 26.8143 2.32016 26.6103 2.75003L26.2394 3.53183L26.2068 12.9825L26.1741 22.4331H27.1151H28.056V13.3472C28.056 6.55557 28.092 4.1396 28.1985 3.77948C28.3887 3.1366 29.3596 2.16708 30.0033 1.97713C30.6993 1.77185 53.5402 1.77185 54.2361 1.97713C54.8798 2.16708 55.8507 3.1366 56.0409 3.77948C56.2481 4.47994 56.2481 53.4943 56.0409 54.1947C55.8507 54.8376 54.8798 55.8071 54.2361 55.9971C53.8731 56.1042 51.1586 56.1394 43.2702 56.1394H32.7867L33.2048 55.2983C33.5967 54.5098 33.6229 54.3868 33.6229 53.3319C33.6229 52.2682 33.5988 52.1581 33.1851 51.3222C32.3706 49.6763 30.9933 48.7839 29.1019 48.6761L28.056 48.6167V45.3558V42.0951H27.1184H26.1808V45.3749V48.6547L24.2371 48.6227L22.2932 48.5906L21.9472 47.2478C21.1483 44.149 19.5598 41.1042 17.519 38.7596C16.8127 37.9483 16.8058 37.9333 16.8053 37.2209L16.805 36.5014L17.5961 36.3641C19.6664 36.0047 21.4193 34.5034 22.0923 32.513L22.3349 31.796H23.0053H23.6759L24.7146 34.4C25.2859 35.8323 25.8293 37.1884 25.9224 37.4137L26.0915 37.8233L27.3513 35.3097L28.6111 32.796L28.7346 33.3786C28.8024 33.699 29.1379 35.3699 29.4802 37.0918L30.1025 40.2225H31.892H33.6815V41.1588V42.0951H34.6191H35.5566V39.2863V36.4774H34.6191H33.6815V37.4137V38.35H32.6539H31.6264L30.5171 32.7908C29.907 29.7332 29.3801 27.2316 29.3462 27.2316C29.3122 27.2316 28.6062 28.5874 27.7773 30.2445L26.2701 33.2574L25.6102 31.5913L24.9502 29.925L23.6904 29.9242L22.4305 29.9234V28.8128V27.7023L23.3681 27.2316L24.3057 26.7609V25.8797C24.3057 22.4784 23.2518 18.6589 21.6181 16.1385C21.3558 15.734 21.1413 15.3873 21.1413 15.3682C21.1413 15.349 21.3956 15.1688 21.7064 14.9676C22.8953 14.1984 23.7661 12.9834 24.1308 11.5847C24.8899 8.67438 23.0244 5.6036 20.023 4.82285C19.0539 4.57076 12.6762 4.56783 11.4725 4.81888C9.37372 5.25659 7.48461 6.45445 6.31803 8.08698C5.70731 8.94158 5.15894 10.0587 4.94962 10.8742C4.82258 11.3691 4.7021 11.5326 4.15151 11.957C2.32018 13.3687 1.03733 15.2571 0.317266 17.6009C0.01431 18.5874 0.00130098 18.7371 1.18097e-05 21.2627C-0.00139456 24.2172 0.12178 24.933 0.922006 26.6197C1.6307 28.1133 2.14754 28.7549 4.81649 31.4523L7.42918 34.0931V35.4598V36.8264L6.2865 37.3996C5.65808 37.715 4.82739 38.2064 4.44063 38.4917C2.18141 40.1581 1.2477 43.2843 2.1936 46.0158C2.91308 48.0938 4.90661 53.1118 5.27332 53.7683C6.08222 55.216 7.71104 56.658 9.27879 57.314C11.0492 58.0548 9.81157 58.0202 33.2127 57.9852L54.4841 57.9535L55.2669 57.583C56.3565 57.0676 57.0351 56.4041 57.5623 55.3389L58 54.4546V28.9871V3.51966L57.5623 2.63534C57.0351 1.57008 56.3565 0.906604 55.2669 0.391178L54.4841 0.0207601L42.3541 0.00191728C35.2776 -0.00908408 30.0346 0.0281333 29.7692 0.0910985ZM35.5566 4.64367V5.57996H42.1197H48.6828V4.64367V3.70739H42.1197H35.5566V4.64367ZM20.4148 6.97467C21.2378 7.42023 21.5929 7.78784 22.0514 8.66888C22.3156 9.17682 22.3627 9.41604 22.365 10.2614C22.3673 11.1724 22.3339 11.3183 21.9693 11.9936C21.5268 12.813 21.1614 13.1662 20.2749 13.6313C19.6878 13.9394 19.6281 13.9461 17.1566 13.9838C14.6879 14.0215 14.6262 14.0166 14.1094 13.7423C12.8909 13.0954 12.7086 11.5707 13.7453 10.6995C13.9494 10.528 14.2994 10.3535 14.523 10.3115L14.9298 10.2353V9.29877V8.36225L14.3731 8.443C13.0299 8.63775 11.7684 9.72689 11.351 11.0523C10.8119 12.7636 11.721 14.741 13.3836 15.4736C13.6539 15.5926 13.8751 15.7502 13.8751 15.8237C13.8751 16.3251 12.9539 18.4615 12.2739 19.5372L11.9882 19.9893L11.5605 19.6143C10.0454 18.2858 7.91062 18.4837 6.6654 20.0682C5.90713 21.0329 5.61261 21.9073 5.61261 23.1938C5.61261 25.0297 6.24571 26.1898 7.96524 27.5051C8.54056 27.9451 9.02541 28.3665 9.04264 28.4414C9.05986 28.5163 8.82137 29.3307 8.51267 30.2514L7.95141 31.9254L5.66324 29.6078C3.66162 27.5803 3.31472 27.1728 2.89327 26.3538C1.98593 24.5905 1.86228 23.987 1.86228 21.3213C1.86228 19.4126 1.90166 18.8401 2.07594 18.2198C2.59032 16.388 3.84562 14.509 5.20687 13.533C5.60675 13.2463 6.03405 12.9327 6.15653 12.8362C6.28005 12.7387 6.48714 12.2705 6.62239 11.7829C7.03223 10.3056 7.50078 9.47807 8.47927 8.50351C9.48131 7.50543 10.2024 7.07766 11.4363 6.7495C12.211 6.54351 12.6461 6.5242 15.9846 6.5482L19.6763 6.57476L20.4148 6.97467ZM31.0445 7.61673C30.613 7.80949 30.2224 8.22181 30.0562 8.65975C29.9729 8.8792 29.9311 11.234 29.9311 15.7112V22.4331H30.8687H31.8063V15.8791V9.3251H42.1197H52.4331V27.1145V44.904H42.1197H31.8063V43.4995V42.0951H30.8603H29.9143L29.952 43.8426C29.993 45.7443 30.0493 45.9195 30.7966 46.4767C31.1181 46.7164 31.1932 46.718 42.1197 46.718C53.0462 46.718 53.1213 46.7164 53.4428 46.4767C53.6208 46.344 53.8751 46.09 54.008 45.9122L54.2497 45.589V27.1145V8.64009L54.008 8.31684C53.8751 8.13906 53.6208 7.88509 53.4428 7.75238C53.122 7.51315 53.0248 7.51081 42.2576 7.48542C33.3837 7.46447 31.3318 7.48846 31.0445 7.61673ZM41.0202 11.3203C40.2785 11.5064 39.223 12.1302 38.7107 12.6853C38.4475 12.9704 38.0653 13.5556 37.8613 13.9855L37.4904 14.7673V18.1613V21.5553L37.8909 22.2928C38.3356 23.1119 38.7006 23.4647 39.5874 23.9317C40.1673 24.2373 40.2461 24.2472 42.1197 24.2472C43.9933 24.2472 44.0721 24.2373 44.652 23.9317C45.5388 23.4647 45.9038 23.1119 46.3486 22.2928L46.749 21.5553V18.1552V14.7551L46.3113 13.8708C45.5194 12.2705 44.1124 11.3316 42.3833 11.2494C41.8838 11.2256 41.2704 11.2576 41.0202 11.3203ZM42.9851 13.2126C43.6289 13.4025 44.5997 14.372 44.7899 15.0149C44.8713 15.2898 44.9325 16.1815 44.9325 17.0923V18.688H42.1197H39.307V17.0923C39.307 15.1069 39.4179 14.7073 40.182 13.9427C41.0041 13.12 41.8896 12.8893 42.9851 13.2126ZM19.5965 16.4935C21.1399 18.577 22.0869 21.3638 22.3776 24.6782L22.4565 25.5774L21.5059 26.0547L20.5553 26.5319V27.2811V28.0301L19.2744 28.0698C17.8899 28.1125 17.6288 28.2143 17.1053 28.9156C16.7291 29.4193 16.7708 30.7212 17.1889 31.5253C17.5575 32.2339 18.2007 32.8949 18.839 33.221L19.2908 33.4518L19.0326 33.7262C18.8905 33.8772 18.5026 34.1231 18.1706 34.2727C17.6187 34.5214 17.3728 34.5481 15.3107 34.5838L13.0547 34.6227V35.55V36.4774H13.9922H14.9298V37.3552V38.2329H14.5673C13.6907 38.2329 11.0975 37.575 9.74383 37.0091L9.30434 36.8253V35.3322V33.8389L10.3005 30.8597C10.8484 29.2211 11.2949 27.8266 11.2927 27.7608C11.2906 27.695 10.6787 27.1935 9.93299 26.6464C9.18738 26.0993 8.39688 25.4433 8.17631 25.1886C7.1847 24.0432 7.21224 22.2205 8.23749 21.1443C9.10276 20.236 9.58843 20.3492 11.0722 21.8049L12.2037 22.9151L12.5554 22.4693C13.7782 20.9195 15.1054 18.4201 15.5416 16.8456L15.8088 15.8809L17.4751 15.88L19.1413 15.8791L19.5965 16.4935ZM33.6835 20.0046C33.6862 21.6925 33.9043 22.7152 34.5261 23.9546C35.6247 26.1442 37.9701 27.763 40.391 28.0027L41.1821 28.081V29.9385V31.796H38.8382H36.4942V32.7323V33.6685H42.1197H47.7452V32.7323V31.796H45.4012H43.0573V29.9234V28.0508L43.4382 28.0488C44.9905 28.0405 47.0128 27.1354 48.2661 25.8879C49.8783 24.2833 50.4385 22.9135 50.5286 20.3557L50.5875 18.688H49.6351H48.6828V19.9508C48.6828 21.9808 48.2404 23.2195 47.0823 24.4318C45.8438 25.7285 44.5659 26.1783 42.1197 26.1783C39.7368 26.1783 38.6607 25.8241 37.3435 24.6063C36.0857 23.4432 35.5566 22.065 35.5566 19.9508V18.688H34.6191H33.6815L33.6835 20.0046ZM18.0303 20.8479C17.4489 21.4284 17.8608 22.4331 18.6802 22.4331C18.9085 22.4331 19.1487 22.327 19.33 22.1458C19.5114 21.9647 19.6177 21.7248 19.6177 21.4968C19.6177 21.2688 19.5114 21.0289 19.33 20.8479C19.1487 20.6667 18.9085 20.5605 18.6802 20.5605C18.4519 20.5605 18.2116 20.6667 18.0303 20.8479ZM44.8871 20.9409C44.7996 21.3875 44.5178 21.7971 44.0669 22.1333C43.7765 22.3498 43.5767 22.3746 42.1197 22.3746C40.6627 22.3746 40.4629 22.3498 40.1725 22.1333C39.7216 21.7971 39.4399 21.3875 39.3523 20.9409L39.2777 20.5605H42.1197H44.9618L44.8871 20.9409ZM20.5297 30.8033C20.4985 31.2871 20.4409 31.7151 20.4018 31.7542C20.282 31.8739 19.2331 31.2879 19.01 30.9767C18.8945 30.8158 18.7665 30.513 18.7255 30.3038L18.6509 29.9234H19.6186H20.5861L20.5297 30.8033ZM44.9325 39.2863V43.0314H45.87H46.8076V39.2863V35.5411H45.87H44.9325V39.2863ZM37.4318 39.2863V41.1588H38.3694H39.307V39.2863V37.4137H38.3694H37.4318V39.2863ZM48.6828 39.2863V41.1588H49.6204H50.5579V39.2863V37.4137H49.6204H48.6828V39.2863ZM41.1821 39.2863V40.2225H42.1197H43.0573V39.2863V38.35H42.1197H41.1821V39.2863ZM9.40876 38.8715C11.2709 39.6156 14.146 40.2225 15.808 40.2225C16.2965 40.2225 16.3485 40.2565 16.8376 40.8955C17.5721 41.8553 18.1317 42.7607 18.7483 43.9866C19.2803 45.0446 20.1147 47.3638 20.2677 48.2102L20.3471 48.6491H17.0574H13.7678L13.5356 47.8591C13.4079 47.4247 13.0318 46.1211 12.6999 44.9625C12.368 43.8038 12.0805 42.8397 12.0611 42.8199C12.0416 42.8001 11.6329 42.898 11.1529 43.0372L10.2802 43.2904L11.0228 45.8798C11.4314 47.304 11.7655 48.5097 11.7655 48.5591C11.7655 48.6086 11.4227 48.6491 11.0037 48.6491H10.2419V49.5854V50.5217H17.2738H24.3057V53.336V56.1504L17.7719 56.1154L11.2381 56.0805L10.4623 55.7789C10.0357 55.6131 9.4363 55.3309 9.13054 55.152C8.35316 54.6971 7.30952 53.6022 6.87764 52.7884C6.67724 52.4108 5.89811 50.5004 5.14628 48.5432C3.65588 44.6631 3.50575 44.0237 3.79464 42.7845C4.0131 41.8471 4.58186 40.8605 5.24871 40.2617C5.69324 39.8627 8.02712 38.5176 8.35223 38.4731C8.37649 38.4697 8.85196 38.649 9.40876 38.8715ZM38.5393 48.8111C38.0622 49.0222 37.5755 49.6183 37.4843 50.1031C37.4436 50.3196 37.4284 51.078 37.4504 51.7885C37.4937 53.1844 37.594 53.4427 38.2973 53.967C38.6073 54.1981 38.7688 54.2083 42.1197 54.2083C45.4706 54.2083 45.6321 54.1981 45.9421 53.967C46.691 53.4086 46.749 53.2281 46.749 51.458C46.749 49.6879 46.691 49.5076 45.9423 48.949C45.6355 48.72 45.4468 48.7062 42.2579 48.6802C39.6416 48.6591 38.8175 48.688 38.5393 48.8111ZM29.8589 50.664C30.5027 50.854 31.4736 51.8235 31.6638 52.4664C31.9884 53.5637 31.7595 54.4385 30.9313 55.2656C30.1673 56.0286 29.7674 56.1394 27.7787 56.1394H26.1808V53.3305V50.5217H27.7787C28.6907 50.5217 29.5837 50.5828 29.8589 50.664ZM44.9325 51.458V52.3943H42.1197H39.307V51.458V50.5217H42.1197H44.9325V51.458Z" fill="url(#paint0_linear_103:865)"/>
<defs>
<linearGradient id="paint0_linear_103:865" x1="58" y1="0" x2="0" y2="58" gradientUnits="userSpaceOnUse">
<stop stop-color="#D351B2"/>
<stop offset="1" stop-color="#9E32D7"/>
</linearGradient>
</defs>
</svg>
