<svg width="55" height="53" viewBox="0 0 55 53" fill="none" xmlns="http://www.w3.org/2000/svg">
<path fill-rule="evenodd" clip-rule="evenodd" d="M18.4229 0.339954C16.7811 1.01087 16.543 1.21135 16.543 1.92268C16.543 2.613 17.3015 3.13255 17.9315 2.87384C19.7683 2.11965 20.332 1.82795 20.4731 1.55831C20.757 1.01617 20.5825 0.396597 20.0723 0.136081C19.6416 -0.0838096 19.3813 -0.0516694 18.4229 0.339954ZM31.9381 2.20642C27.9064 2.83809 24.711 5.87253 23.8962 9.84361C23.6814 10.8901 23.7294 13.049 23.9873 13.9471L24.1435 14.4909L18.9467 19.6216C16.0886 22.4434 13.75 24.6959 13.75 24.627C13.75 24.5581 13.7984 24.376 13.8576 24.2222C14.0982 23.5975 14.1954 22.5066 14.0717 21.8199C13.8385 20.5252 13.0159 19.24 12.07 18.6927C11.1661 18.1695 9.87196 18.3485 8.94126 19.1252C8.14591 19.7889 3.66599 26.8643 2.08678 29.9507C0.147061 33.7418 0 34.4063 0 39.3845V43.0188L0.29541 43.4411C0.457832 43.6733 2.10257 45.827 3.95033 48.227L7.30984 52.5907L7.87123 52.7566C8.69118 52.9989 10.2325 53.0731 11.2854 52.9211C14.0895 52.5162 16.8382 51.0275 20.3564 48.0081C21.0063 47.4504 23.5749 44.9731 26.0643 42.5031C30.2928 38.3077 30.6055 37.9719 30.8177 37.3983C31.5074 35.535 30.5058 33.4591 28.6833 32.9742L28.3057 32.8736L28.3002 32.0486C28.2903 30.5521 27.4591 29.2993 26.2026 28.8872L25.674 28.7139L25.7387 28.3145C25.7743 28.0948 25.7484 27.6532 25.681 27.3331C25.4659 26.3099 24.96 25.5719 24.097 25.022L23.6481 24.7359L25.6159 22.7949L27.5839 20.8537L28.1732 21.8488C28.4974 22.396 30.8508 26.4237 33.4032 30.7993C35.9554 35.1748 38.1849 38.8854 38.3578 39.045C38.6641 39.328 38.6719 39.3612 38.6719 40.3876V41.4399L38.0691 41.6271C36.3442 42.1629 34.8708 43.7898 34.4937 45.5752C34.2595 46.684 34.3923 47.2935 34.9277 47.5668C35.3684 47.7919 48.4206 47.7919 48.8614 47.5668C49.4227 47.2802 49.5492 46.5849 49.2497 45.4332C48.7777 43.6185 47.421 42.1554 45.7199 41.6271L45.1172 41.4399V38.7558V36.0719L46.6479 35.2002C54.2274 30.8838 54.6886 30.6089 54.8427 30.3145C54.9292 30.1494 55 29.9093 55 29.781C55 29.492 53.1252 26.2399 52.7281 25.8403C52.3214 25.4309 51.7652 25.4382 51.3394 25.8587C50.8286 26.3632 50.8964 26.7663 51.7317 28.19C52.1201 28.8522 52.398 29.4307 52.3494 29.4758C52.3006 29.5208 50.6655 30.4662 48.7158 31.5766L45.1709 33.5955L45.1387 32.959L45.1066 32.3226L45.7439 31.6499C47.7995 29.4799 47.7655 26.3416 45.6639 24.2663C43.5258 22.1551 40.2632 22.1551 38.1252 24.2663C36.0265 26.3388 35.9879 29.4782 38.0348 31.6387L38.6719 32.3114V33.9365V35.5617L35.1107 29.4713C33.1522 26.1216 31.5292 23.3035 31.504 23.2087C31.4692 23.0771 32.9859 22.1657 37.9216 19.352C41.4763 17.3257 44.3982 15.6833 44.4146 15.7023C44.4311 15.7212 44.8631 16.4528 45.3747 17.3279C45.8863 18.203 46.4271 19.0264 46.5764 19.1577C46.9737 19.5069 47.522 19.4777 47.9184 19.0863C48.54 18.4726 48.5742 18.5503 44.9475 12.3425C43.1409 9.25044 41.4906 6.47164 41.2801 6.16742C40.4275 4.93559 38.7905 3.60161 37.3276 2.9466C35.8502 2.28513 33.4979 1.96203 31.9381 2.20642ZM12.8144 4.0014C12.1388 4.52869 11.18 5.5907 11.1018 5.89831C10.9096 6.65514 11.6396 7.34462 12.4267 7.14955C12.753 7.06872 14.3358 5.59749 14.5658 5.16131C14.8662 4.59149 14.6786 3.99896 14.1062 3.70991C13.6961 3.50285 13.3544 3.57997 12.8144 4.0014ZM35.5746 4.57494C37.1949 5.08886 38.6587 6.13729 39.525 7.40445C40.2449 8.45733 41.1542 10.0929 41.0667 10.1773C40.9631 10.2773 30.0345 16.5149 29.8213 16.5956C29.7154 16.6358 29.6148 16.4873 29.4832 16.096C29.1153 15.0021 27.6241 13.8806 26.5375 13.8806C26.0695 13.8806 25.9414 13.3972 25.947 11.653C25.9511 10.3886 25.9852 10.1217 26.2396 9.37243C27.1235 6.76886 29.3825 4.81 32.0463 4.33733C32.9925 4.16953 34.6475 4.28101 35.5746 4.57494ZM18.4612 5.60756C17.3097 6.18587 16.9727 6.51513 16.9727 7.0613C16.9727 7.56515 17.4599 8.04651 17.9699 8.04651C18.3846 8.04651 20.5547 7.0106 20.7948 6.69789C20.875 6.59373 20.942 6.3121 20.9438 6.07206C20.9464 5.73931 20.88 5.56938 20.6641 5.35606C20.2245 4.92212 19.7087 4.98099 18.4612 5.60756ZM30.8718 6.98365C30.5088 7.12855 30.1855 7.61468 30.1855 8.01596C30.1855 8.79157 31.1676 9.27421 31.849 8.83336C32.5019 8.41087 32.3791 7.33868 31.643 7.03499C31.2189 6.85997 31.187 6.85785 30.8718 6.98365ZM34.4282 9.15116C34.0627 9.51202 33.9879 9.90396 34.2004 10.3442C34.4029 10.7634 34.9183 11.0265 35.3698 10.9413C35.7915 10.8617 36.2012 10.3418 36.2012 9.88646C36.2012 9.0349 35.0355 8.55142 34.4282 9.15116ZM8.67453 9.2112C8.40028 9.4243 7.57689 11.1311 7.45271 11.744C7.27117 12.6408 8.17738 13.3049 9.0055 12.882C9.27856 12.7426 9.57397 12.186 10.3377 10.3723C10.4864 10.0193 10.3708 9.57948 10.0445 9.25723C9.71405 8.93095 9.06351 8.9091 8.67453 9.2112ZM13.983 9.53759C13.5848 9.90396 12.6758 11.8061 12.6758 12.273C12.6758 12.8555 13.0821 13.2454 13.684 13.2407C13.9271 13.2389 14.2087 13.1754 14.3097 13.0995C14.6306 12.8587 15.6836 10.707 15.6836 10.292C15.6836 9.46789 14.5874 8.98165 13.983 9.53759ZM30.2703 11.5361C29.982 11.7905 29.9218 11.9203 29.9218 12.2894C29.9218 12.662 29.9816 12.7881 30.2838 13.0548C30.5977 13.3317 30.7042 13.3663 31.0868 13.3156C32.1514 13.1746 32.3654 11.8342 31.4011 11.3472C31.0107 11.15 30.637 11.2124 30.2703 11.5361ZM42.8065 12.9353C43.0823 13.4071 43.2875 13.8133 43.2628 13.8378C43.0777 14.0206 30.3642 21.1901 30.2975 21.1493C30.191 21.0843 29.2661 19.4969 29.2896 19.4195C29.3165 19.3309 42.0407 12.0892 42.1805 12.0829C42.2492 12.0798 42.5309 12.4634 42.8065 12.9353ZM27.2103 16.4277C27.494 16.7412 27.5194 16.8298 27.4756 17.3512L27.4273 17.9279L20.6487 24.6288C16.0739 29.1513 13.8469 31.4245 13.7984 31.6213C13.6011 32.4233 14.3112 33.1232 15.1196 32.9239C15.3107 32.8768 16.5211 31.7633 18.5463 29.7715C21.5619 26.8055 21.6948 26.6901 22.1449 26.6448C22.7409 26.5848 23.259 26.8858 23.4868 27.4244C23.833 28.2426 23.8142 28.268 20.1991 31.86C18.3788 33.6686 16.8563 35.2565 16.8158 35.3886C16.712 35.7274 16.936 36.32 17.2428 36.5185C17.3855 36.6108 17.6823 36.6864 17.9025 36.6864C18.2827 36.6864 18.4488 36.5429 21.2095 33.8318C24.3749 30.7233 24.5154 30.6232 25.3828 30.8597C25.834 30.9828 26.0544 31.2561 26.1592 31.8227C26.2967 32.5662 26.012 32.9286 22.8386 36.0492C19.9884 38.8521 19.873 38.9813 19.873 39.371C19.873 39.9164 20.0319 40.1745 20.4817 40.3601C20.7694 40.4788 20.9386 40.4893 21.1986 40.4045C21.4205 40.3322 22.4547 39.3883 24.1704 37.6921C27.2075 34.6895 27.2209 34.6815 28.3902 35.1501C28.8393 35.3301 29.0348 36.2227 28.7452 36.7712C28.6621 36.9287 26.4747 39.1344 23.8844 41.6728C18.8575 46.5989 17.3379 47.9118 15.1449 49.2231C12.8972 50.5671 10.7268 51.1287 8.99443 50.8145C8.61029 50.7449 8.42392 50.5257 5.36895 46.5527L2.14844 42.3643V39.1079C2.14844 35.5946 2.20226 35.1002 2.7471 33.6085C3.60809 31.2518 5.78209 27.4655 9.31133 22.1762C10.5266 20.355 10.8294 20.1598 11.3537 20.8601C11.8264 21.4913 11.9633 21.8797 11.9596 22.5786C11.954 23.6175 11.792 23.9403 8.60847 29.256C7.52265 31.0691 7.44305 31.3627 7.89433 31.8924C8.195 32.2452 8.61061 32.3648 9.01796 32.2158C9.16867 32.1606 12.9175 28.5432 17.3486 24.1771C21.7798 19.8109 25.502 16.184 25.6201 16.1174C25.7383 16.0507 26.0738 16.0152 26.3657 16.0385C26.8011 16.0732 26.9528 16.1431 27.2103 16.4277ZM49.1036 21.5598C48.1724 22.0695 48.562 23.5332 49.6289 23.5332C50.1732 23.5332 50.7031 23.0151 50.7031 22.4828C50.7031 21.6864 49.8118 21.1721 49.1036 21.5598ZM43.338 25.1694C44.4598 25.7115 45.0577 26.6894 45.0612 27.9883C45.0632 28.6496 45.0122 28.887 44.7597 29.3948C44.5849 29.7463 44.273 30.1516 44.025 30.3494C43.7881 30.5385 43.4656 30.7964 43.3083 30.9226L43.0225 31.1521L42.9926 36.2528L42.9627 41.3536H41.8915H40.8203L40.8128 36.3946C40.8086 33.6673 40.7691 31.3447 40.7249 31.2334C40.6807 31.1223 40.3827 30.8336 40.0626 30.5921C38.9897 29.7827 38.5014 28.5821 38.7565 27.3813C39.1979 25.3029 41.4068 24.2365 43.338 25.1694ZM41.3692 27.0757C40.438 27.5854 40.8276 29.0491 41.8945 29.0491C42.4388 29.0491 42.9688 28.5309 42.9688 27.9986C42.9688 27.2022 42.0775 26.688 41.3692 27.0757ZM44.9727 43.6331C45.6887 43.8431 46.3453 44.3275 46.7337 44.9322C46.9081 45.2037 47.0508 45.4643 47.0508 45.5112C47.0508 45.5581 44.7305 45.5965 41.8945 45.5965C39.0586 45.5965 36.7383 45.5581 36.7383 45.5112C36.7383 45.304 37.3958 44.4308 37.7563 44.1592C38.5564 43.5566 39.0032 43.4824 41.8481 43.4786C43.8342 43.4759 44.5586 43.5117 44.9727 43.6331Z" fill="url(#paint0_linear_103:867)"/>
<defs>
<linearGradient id="paint0_linear_103:867" x1="42.5" y1="6.00006" x2="-1.20139e-07" y2="53.0001" gradientUnits="userSpaceOnUse">
<stop stop-color="#D351B2"/>
<stop offset="1" stop-color="#9E32D7"/>
</linearGradient>
</defs>
</svg>
