<svg width="53" height="53" viewBox="0 0 53 53" fill="none" xmlns="http://www.w3.org/2000/svg">
<circle cx="26.5" cy="26.5" r="25.5" stroke="#2A9FD9" stroke-width="2"/>
<path d="M13.4505 24.4543L13.3876 24.3769C13.3983 24.3682 13.4108 24.3622 13.4129 24.3612L13.4131 24.361C13.4184 24.3584 13.4248 24.3555 13.4316 24.3524C13.4455 24.3461 13.4646 24.3379 13.4883 24.3279C13.5358 24.3078 13.6041 24.2796 13.6915 24.244C13.8666 24.1727 14.1196 24.071 14.4397 23.9433C15.0799 23.6879 15.9888 23.328 17.0787 22.898C19.2586 22.038 22.1629 20.8974 25.0907 19.7507C30.9437 17.4584 36.8974 15.139 37.3364 14.9923M13.4505 24.4543L37.3364 14.9923C37.3364 14.9923 37.3364 14.9923 37.3364 14.9923M13.4505 24.4543L13.3876 24.3769C12.6692 24.96 12.7577 26.1214 13.568 26.541C13.6 26.5576 13.7084 26.6019 13.8669 26.6648C14.029 26.7291 14.2507 26.8155 14.516 26.9178C15.0465 27.1226 15.752 27.3913 16.5042 27.6747C17.2563 27.958 17.9415 28.2171 18.4397 28.4064C18.6888 28.501 18.891 28.5782 19.0314 28.6321C19.1017 28.6591 19.1562 28.6802 19.1934 28.6948L19.2085 28.7008L19.2181 28.7303C19.2333 28.7776 19.2553 28.8471 19.2834 28.9364C19.3396 29.1152 19.4199 29.3728 19.5185 29.6903C19.7157 30.3252 19.9858 31.199 20.2811 32.1584C20.5765 33.1181 20.8554 34.0112 21.0668 34.6771C21.1725 35.01 21.2614 35.2863 21.327 35.4858C21.3599 35.5854 21.387 35.6663 21.4076 35.7256C21.4269 35.7812 21.4431 35.8257 21.4531 35.8456C21.7712 36.4777 22.5248 36.7416 23.1412 36.4261L23.0957 36.3371L23.1412 36.4261C23.1848 36.4038 23.271 36.3433 23.3814 36.2615C23.4952 36.1773 23.6426 36.0643 23.8133 35.9307C24.1548 35.6636 24.5909 35.3132 25.0392 34.9438C25.4866 34.5752 25.9069 34.2349 26.2236 33.9837C26.382 33.8581 26.5141 33.755 26.6105 33.6819C26.6588 33.6453 26.6976 33.6167 26.726 33.5966C26.7403 33.5866 26.7512 33.5792 26.759 33.5742C26.7622 33.5721 26.7644 33.5708 26.7656 33.5701C26.7936 33.5599 26.8183 33.5572 26.8475 33.5616C26.8808 33.5665 26.9239 33.5812 26.9867 33.613M13.4505 24.4543L37.3364 14.9923M37.3364 14.9923C37.6548 14.8859 37.9583 14.8709 38.2289 14.9505C38.5003 15.0303 38.7309 15.2031 38.9053 15.4586C38.9197 15.4797 38.9356 15.4997 38.9519 15.5202C39.0098 15.5929 39.0731 15.6724 39.0926 15.8311C39.1158 16.0197 39.0857 16.3389 38.9753 16.9844C38.781 18.1211 38.3291 20.3127 37.4265 24.6907C37.297 25.3185 37.1583 25.9913 37.0097 26.7124C36.4208 29.5708 35.8763 32.1924 35.4735 34.1135C35.2721 35.0741 35.106 35.8596 34.9876 36.4121C34.9283 36.6883 34.8809 36.9065 34.8469 37.0592C34.8299 37.1355 34.8162 37.1958 34.806 37.239C34.8031 37.2515 34.8003 37.2627 34.7979 37.2726C34.7962 37.2797 34.7946 37.2861 34.7931 37.2917C34.7903 37.3026 34.7864 37.3171 34.7823 37.3276L34.7823 37.3276C34.7226 37.4781 34.59 37.6397 34.4434 37.7706C34.2969 37.9016 34.1214 38.0154 33.9649 38.0581C33.6301 38.1495 33.1927 38.088 32.918 37.9062L32.9179 37.9062C32.7994 37.8277 31.4533 36.8475 29.9297 35.7305C29.1671 35.1714 28.4533 34.6528 27.9177 34.2677C27.6499 34.0751 27.4267 33.916 27.2644 33.802C27.1832 33.745 27.1175 33.6994 27.0692 33.6666C27.045 33.6502 27.0255 33.6373 27.0108 33.6278L26.9931 33.6167C26.9883 33.6138 26.9865 33.6129 26.9867 33.613M26.9867 33.613L27.0319 33.5238L26.9868 33.613C26.9868 33.613 26.9868 33.613 26.9867 33.613ZM32.5871 19.5126L32.587 19.5126L21.1456 27.5254L21.0458 27.5183C21.0458 27.5183 21.0458 27.5183 21.0458 27.5183C21.0339 27.6861 21.042 27.8232 21.1245 28.1743C21.2063 28.5224 21.3634 29.0894 21.6526 30.1191C21.9869 31.3092 22.1652 31.9348 22.3053 32.2801C22.3758 32.4536 22.4406 32.567 22.5181 32.6472C22.5974 32.7292 22.6831 32.7691 22.775 32.8075C22.8989 32.8593 23.0593 32.8683 23.2083 32.8495C23.3577 32.8306 23.5122 32.7815 23.6238 32.7013C23.6923 32.6521 23.7517 32.5969 23.8031 32.5199C23.8537 32.4441 23.8935 32.3515 23.9289 32.231C23.9987 31.9929 24.0566 31.6258 24.1375 31.0213C24.2374 30.2756 24.2953 29.882 24.3685 29.6301C24.4043 29.5068 24.4429 29.421 24.4904 29.3464C24.5384 29.2708 24.5977 29.2031 24.6804 29.1166L24.608 29.0475L24.6804 29.1166C24.8242 28.9659 26.894 27.0128 29.2839 24.7733C30.4779 23.6543 31.5689 22.6226 32.3648 21.8618C32.7627 21.4814 33.087 21.1685 33.3137 20.9462C33.427 20.8351 33.5162 20.7463 33.5782 20.6828C33.6091 20.6511 33.6339 20.6251 33.6516 20.6054C33.6604 20.5957 33.6684 20.5867 33.6747 20.5788C33.6778 20.5749 33.6814 20.5703 33.6847 20.5654C33.6869 20.5623 33.6936 20.5525 33.6985 20.5395L33.6985 20.5395C33.9669 19.8266 33.2676 19.1586 32.5871 19.5126ZM22.6164 35.3076C22.61 35.2962 22.6026 35.2821 22.5942 35.2647C22.5503 35.1736 22.4896 35.0162 22.3998 34.7538C22.2209 34.2307 21.9322 33.3077 21.439 31.7069C21.1323 30.7113 20.8466 29.7913 20.6336 29.1112C20.527 28.7712 20.4386 28.491 20.3747 28.2912C20.3428 28.1913 20.3169 28.1113 20.298 28.0539C20.2803 28.0003 20.2663 27.9589 20.2593 27.9436C20.2386 27.8982 20.2083 27.8517 20.1765 27.8123C20.1456 27.774 20.1075 27.7349 20.0684 27.7103C20.0574 27.7034 20.0412 27.6963 20.0306 27.6916C20.0165 27.6855 19.9979 27.6777 19.9752 27.6684C19.9298 27.6497 19.8664 27.6244 19.7872 27.5932C19.6287 27.5308 19.4059 27.4445 19.1352 27.3406C18.5936 27.1327 17.8597 26.8542 17.064 26.5552C16.2688 26.2563 15.5389 25.9755 15.0036 25.7638C14.7359 25.6579 14.5173 25.5696 14.3637 25.505C14.2868 25.4726 14.227 25.4466 14.1858 25.4275C14.1657 25.4182 14.1512 25.411 14.1416 25.4059C14.1415 25.4059 14.1415 25.4058 14.1414 25.4057C14.1431 25.4038 14.1449 25.4017 14.1471 25.3994L14.1492 25.3984C14.1607 25.3931 14.178 25.3855 14.2014 25.3756C14.2481 25.3557 14.3164 25.3274 14.4052 25.2912C14.5827 25.2187 14.8406 25.1151 15.1676 24.9848C15.8214 24.7242 16.7507 24.3569 17.8637 23.9189C20.0897 23.0428 23.0502 21.8837 26.0112 20.7279C28.9723 19.5721 31.9339 18.4197 34.1621 17.5572C35.2762 17.126 36.2069 16.7672 36.8625 16.5167C37.1903 16.3915 37.4491 16.2934 37.6275 16.2269C37.7169 16.1936 37.7856 16.1684 37.8328 16.1516C37.8407 16.1488 37.848 16.1463 37.8545 16.144C37.8597 16.1573 37.8645 16.1755 37.8671 16.1982L37.8661 16.2065C37.8646 16.2178 37.862 16.2343 37.8584 16.2562C37.8511 16.2998 37.8399 16.362 37.825 16.4421C37.7953 16.6021 37.7511 16.8313 37.6945 17.12C37.5811 17.6973 37.4181 18.5112 37.2216 19.4829C36.8287 21.4262 36.3023 23.9995 35.7729 26.5697C35.2434 29.1399 34.7109 31.7068 34.3058 33.6371C34.1033 34.6023 33.9326 35.4082 33.8101 35.9757C33.7489 36.2596 33.6997 36.4835 33.6647 36.6378C33.6471 36.7151 33.6333 36.7743 33.6232 36.8148C33.6189 36.8323 33.6154 36.8456 33.6128 36.8551C33.6104 36.8576 33.608 36.8601 33.6056 36.8624C33.6011 36.8593 33.5962 36.856 33.5911 36.8524C33.5489 36.8232 33.4875 36.78 33.4088 36.724C33.2516 36.612 33.0264 36.4499 32.7499 36.2497C32.1968 35.8494 31.439 35.2971 30.61 34.6896C28.9777 33.4933 28.1511 32.888 27.6637 32.5902C27.4196 32.441 27.252 32.3635 27.1051 32.3296C26.9558 32.2951 26.8349 32.3075 26.6963 32.322C26.5414 32.3381 26.3108 32.4025 26.1758 32.4679C26.1524 32.4792 26.1195 32.5006 26.083 32.5258C26.0445 32.5524 25.9962 32.5873 25.9396 32.6294C25.8264 32.7135 25.678 32.8276 25.505 32.9633C25.1589 33.2347 24.713 33.5939 24.2507 33.9752C23.789 34.3561 23.3665 34.7022 23.0577 34.953C22.9033 35.0784 22.7775 35.1799 22.6896 35.2498C22.6609 35.2726 22.6365 35.292 22.6164 35.3076ZM37.8963 16.1302C37.8967 16.13 37.8967 16.1301 37.8963 16.1302L37.8963 16.1302ZM29.0024 23.1825C29.1888 23.0668 29.3596 22.961 29.5109 22.8675C28.9484 23.3954 27.9592 24.3217 26.867 25.343C26.0481 26.1088 25.2783 26.835 24.6977 27.3881C24.4075 27.6646 24.1644 27.8981 23.986 28.0717C23.8101 28.2428 23.6921 28.3606 23.6572 28.402L23.6572 28.402C23.2947 28.8325 23.137 29.2454 23.0321 30.0023C23.0186 30.1003 23.0047 30.1932 22.9915 30.2761C22.9834 30.2495 22.975 30.2217 22.9662 30.1926C22.885 29.9229 22.7768 29.5504 22.6612 29.1405C22.435 28.3384 22.3229 27.9268 22.2939 27.6873C22.2797 27.5696 22.2876 27.5067 22.3037 27.4644C22.3196 27.4227 22.3477 27.3891 22.4038 27.3359L22.4038 27.3358C22.4028 27.3368 22.4023 27.3373 22.4023 27.3373C22.4024 27.3375 22.4077 27.3334 22.4233 27.3227C22.4403 27.3111 22.4643 27.295 22.4952 27.2747C22.557 27.2341 22.6447 27.1774 22.7548 27.1067C22.975 26.9654 23.2839 26.7691 23.6519 26.5362C24.3879 26.0705 25.3599 25.4591 26.3308 24.8505C27.3017 24.242 28.2713 23.6364 29.0024 23.1825Z" fill="#2A9FD9" stroke="#2A9FD9" stroke-width="0.2"/>
</svg>
