<svg width="53" height="53" viewBox="0 0 53 53" fill="none" xmlns="http://www.w3.org/2000/svg">
<circle cx="26.5" cy="26.5" r="25.5" stroke="#2784EE" stroke-width="2"/>
<path d="M11 20.3116C11.1708 20.0171 11.4236 19.8806 11.7516 19.859C11.9088 19.8518 12.0659 19.8375 12.2163 19.8303C13.4735 19.8231 14.7376 19.8159 15.9949 19.8087C16.726 19.8016 17.1155 20.0674 17.3957 20.7714C18.0721 22.4596 18.8853 24.0831 19.7394 25.6779C20.0947 26.3532 20.5115 26.9853 21.0923 27.4738C21.2221 27.5816 21.3588 27.6822 21.5091 27.754C21.8849 27.9264 22.1788 27.8043 22.3838 27.4307C22.6639 26.8991 22.6844 26.3101 22.7459 25.7354C22.8962 24.3848 22.8757 23.0343 22.6092 21.6981C22.4521 20.9294 22.0011 20.5199 21.2973 20.3547C21.1811 20.326 21.0035 20.3619 20.9693 20.211C20.9352 20.0602 21.065 19.9524 21.1606 19.8518C21.4681 19.4998 21.8508 19.2843 22.3018 19.2125C23.9895 18.9539 25.6841 18.9108 27.3718 19.1981C28.1986 19.3418 28.4719 19.6363 28.5744 20.6277C28.6564 21.4466 28.5813 22.2656 28.5608 23.0917C28.5334 24.1549 28.4993 25.2253 28.5334 26.2957C28.5403 26.6262 28.5813 26.9566 28.7248 27.2511C28.9434 27.7109 29.3466 27.9911 29.8727 27.5098C30.6585 26.7986 31.1983 25.9006 31.7449 25.0098C32.5649 23.6593 33.2345 22.2297 33.8017 20.7498C34.1023 19.9668 34.2321 19.8806 35.0384 19.8734C36.6169 19.859 38.2021 19.8375 39.7805 19.8159C40.0334 19.8159 40.2862 19.8447 40.5253 19.938C40.9148 20.0961 41.0515 20.3403 40.9831 20.7786C40.8601 21.5329 40.498 22.1794 40.1358 22.8187C39.2134 24.4279 38.0586 25.8647 37.0063 27.3805C36.7672 27.7253 36.5144 28.0701 36.3162 28.4508C36.0019 29.0686 36.0566 29.5931 36.5075 30.1175C36.8765 30.5557 37.2797 30.958 37.6828 31.3603C38.7761 32.445 39.8489 33.5513 40.6483 34.9091C40.7645 35.1102 40.8601 35.3185 40.9148 35.5556C41.0993 36.3243 40.7645 36.8271 40.0129 36.8846C39.6507 36.9133 39.2954 36.9277 38.9332 36.9349C37.7648 36.9564 36.5895 36.9708 35.4211 36.9995C34.7105 37.0139 34.0818 36.6835 33.5147 36.2381C32.8792 35.7352 32.3736 35.0887 31.8474 34.4709C31.4648 34.0183 31.1026 33.5441 30.638 33.1778C30.5082 33.0772 30.3715 32.9694 30.2212 32.8976C29.9069 32.7396 29.613 32.7683 29.3329 33.0341C28.8068 33.5441 28.6633 34.2194 28.5813 34.9163C28.5403 35.2395 28.5471 35.57 28.5266 35.9004C28.4856 36.4895 28.1986 36.8487 27.6451 36.899C25.0691 37.1217 22.6297 36.8128 20.4159 35.2108C18.9399 34.1476 17.7442 32.8401 16.685 31.3531C14.396 28.1419 12.6399 24.6434 11.1162 21.0084C11.0752 20.9222 11.0957 20.8001 11 20.7426C11 20.599 11 20.4553 11 20.3116Z" stroke="#2784EE" stroke-width="1.7"/>
</svg>
