<svg width="53" height="53" viewBox="0 0 53 53" fill="none" xmlns="http://www.w3.org/2000/svg">
<circle cx="26.5" cy="26.5" r="25.5" stroke="#1773EA" stroke-width="2"/>
<path d="M31.596 13C32.0783 13.0351 32.619 13.0632 33.1013 13.1054C33.4008 13.1265 33.7004 13.1616 34 13.1827C34 14.623 34 16.0281 34 17.4754C33.8758 17.4754 33.7589 17.4754 33.6493 17.4754C32.6994 17.4895 31.7495 17.4614 30.8069 17.5316C29.7912 17.6019 29.1921 18.1077 29.1263 19.0913C29.0386 20.4192 29.1044 21.7541 29.1044 23.1171C30.5731 23.1171 32.071 23.1171 33.5908 23.1171C33.3789 24.726 33.1743 26.3068 32.9697 27.9087C31.6691 27.9087 30.3831 27.9087 29.0825 27.9087C29.0752 28.007 29.0605 28.0773 29.0605 28.1546C29.0605 32.0187 29.0605 35.8829 29.0605 39.7471C29.0605 39.8244 29.0605 39.9227 29.0605 40C27.38 40 25.7286 39.9859 24.048 39.9859C24.048 39.9227 24.048 39.8314 24.048 39.74C24.048 35.8899 24.048 32.0328 24.048 28.1827C24.048 28.1054 24.048 28.0281 24.048 27.9227C22.6962 27.9227 21.3591 27.9227 20 27.9227C20 26.3138 20 24.733 20 23.1241C21.3372 23.1241 22.6743 23.1241 24.048 23.1241C24.048 22.9977 24.048 22.8993 24.048 22.7939C24.0626 21.3817 24.0188 19.9625 24.0992 18.5574C24.1942 16.8993 24.786 15.4239 26.1451 14.3068C27.0585 13.5621 28.1326 13.1967 29.309 13.0492C29.3967 13.0351 29.7401 13.007 29.9008 13.007C30.595 13.007 30.9019 13 31.596 13Z" stroke="#1773EA" stroke-width="1.5"/>
</svg>
