<svg width="53" height="53" viewBox="0 0 53 53" fill="none" xmlns="http://www.w3.org/2000/svg">
<circle cx="26.5" cy="26.5" r="25.5" stroke="#2A9FD9" stroke-width="2"/>
<path d="M36.9175 16.742C36.619 16.0748 35.9778 15.831 35.2412 16.1197C29.0506 18.5319 22.86 20.9506 16.6631 23.3628C15.063 23.9851 13.4693 24.6139 11.8693 25.2298C11.4629 25.3837 11.1709 25.6404 11.0502 26.0702C10.8661 26.731 11.1963 27.3212 11.9074 27.5907C13.6344 28.2451 15.3678 28.8995 17.1012 29.541C17.2408 29.5923 17.3107 29.6693 17.3551 29.8169C18.0282 32.0174 18.7075 34.2115 19.3806 36.4121C19.4377 36.5981 19.5012 36.7842 19.6155 36.9446C20.0536 37.5412 20.7901 37.631 21.3997 37.137C22.3902 36.3351 23.368 35.5203 24.3521 34.712C24.7648 34.3719 24.8601 34.3655 25.2982 34.6927C27.1077 36.0207 28.9236 37.3552 30.7332 38.6832C30.9554 38.8436 31.184 38.9847 31.4697 38.9976C32.1555 39.036 32.6253 38.619 32.784 37.8492C33.184 35.8988 33.5841 33.9549 33.9841 32.011C34.873 27.6933 35.7555 23.3692 36.6508 19.0516C36.7587 18.5319 36.8222 17.9994 37 17.4926C37 17.3386 37 17.1846 37 17.0307C36.9238 16.9537 36.9556 16.8382 36.9175 16.742ZM35.6666 18.7115C34.746 23.196 33.819 27.6869 32.8983 32.1714C32.5237 33.9998 32.1491 35.8347 31.7745 37.6631C31.7046 37.9967 31.6285 38.0288 31.3618 37.8299C29.5268 36.4827 27.6919 35.1418 25.8569 33.7945C25.1077 33.2428 24.4791 33.2556 23.7616 33.8459C22.7902 34.6414 21.8187 35.4433 20.8473 36.2453C20.5552 36.4891 20.4981 36.4698 20.3901 36.117C19.6853 33.8202 18.9742 31.5298 18.2694 29.2267C18.1805 28.938 18.0282 28.7647 17.7488 28.6621C15.9456 27.9884 14.1424 27.3084 12.3455 26.6219C12.282 26.5963 12.2122 26.5834 12.155 26.5449C12.0153 26.4615 12.0153 26.3397 12.155 26.2498C12.2122 26.2113 12.2757 26.1921 12.3392 26.1664C20.0663 23.1511 27.7935 20.1422 35.5206 17.1269C35.5904 17.1012 35.6603 17.0756 35.7365 17.0499C35.8889 16.9986 35.9587 17.0692 35.9714 17.236C35.8635 17.7236 35.7682 18.2176 35.6666 18.7115Z" fill="#2A9FD9" stroke="#2A9FD9" stroke-width="0.4"/>
<path d="M31.767 21.1934C31.4766 20.9355 31.1665 20.9355 30.7377 21.1934C27.6301 23.0168 24.5225 24.8403 21.4148 26.6638C20.8936 26.9719 20.3658 27.28 19.8445 27.5881C19.3035 27.9088 19.0132 28.3678 19 28.9778C19 29.0972 19.0066 29.2104 19.0396 29.3299C19.2639 30.0844 19.4816 30.8453 19.706 31.5998C19.8775 32.1783 20.0491 32.7568 20.2272 33.3353C20.3724 33.8132 20.7616 34.071 21.2037 33.9829C21.6062 33.9075 21.8305 33.6434 21.9031 33.1466C21.9823 32.5933 22.0746 32.0337 22.1274 31.4803C22.1802 30.9081 22.4441 30.4743 22.8862 30.0781C25.8156 27.5064 28.7253 24.9158 31.6416 22.3315C31.7274 22.256 31.8065 22.1806 31.8725 22.0925C32.0771 21.8096 32.0309 21.426 31.767 21.1934ZM28.0985 24.0606C26.0928 25.8401 24.087 27.6259 22.068 29.3928C21.4742 29.9147 21.1311 30.5309 21.0651 31.2917C21.052 31.4678 21.019 31.6438 20.9992 31.8136C20.9794 31.8513 20.9662 31.8953 20.9068 31.8639C20.6495 30.9962 20.3856 30.1284 20.1282 29.2607C20.0029 28.8394 20.0821 28.6508 20.4713 28.4181C22.9587 26.9593 25.4462 25.4943 27.9336 24.0418C27.993 24.004 28.0457 23.9349 28.1315 23.96C28.1909 24.0229 28.1249 24.0355 28.0985 24.0606Z" fill="#2A9FD9" stroke="#2A9FD9" stroke-width="0.3"/>
</svg>
