<svg width="35" height="35" viewBox="0 0 35 35" fill="none" xmlns="http://www.w3.org/2000/svg">
<circle cx="17.5" cy="17.5" r="17" stroke="#E159A9"/>
<path d="M24.5938 12.375H11.4062C10.6293 12.375 10 13.0082 10 13.7812V22.2188C10 22.9964 10.6339 23.625 11.4062 23.625H24.5938C25.3642 23.625 26 22.9991 26 22.2188V13.7812C26 13.0096 25.3732 12.375 24.5938 12.375ZM24.3968 13.3125C24.1095 13.5983 19.1651 18.5167 18.9944 18.6865C18.7288 18.9521 18.3756 19.0983 18 19.0983C17.6244 19.0983 17.2712 18.9521 17.0047 18.6856C16.8899 18.5714 12.0001 13.7073 11.6032 13.3125H24.3968ZM10.9375 22.0279V13.9727L14.9887 18.0025L10.9375 22.0279ZM11.6038 22.6875L15.6534 18.6637L16.3427 19.3494C16.7854 19.7921 17.374 20.0358 18 20.0358C18.626 20.0358 19.2146 19.7921 19.6564 19.3503L20.3466 18.6637L24.3962 22.6875H11.6038ZM25.0625 22.0279L21.0113 18.0025L25.0625 13.9727V22.0279Z" fill="#E159A9"/>
</svg>
