<svg width="53" height="53" viewBox="0 0 53 53" fill="none" xmlns="http://www.w3.org/2000/svg">
<circle cx="26.5" cy="26.5" r="25.5" stroke="#1773EA" stroke-width="2"/>
<path d="M24.5878 14.0855L24.5144 14.0175C25.5614 12.8859 27.27 12.1148 29.1014 11.9369C29.1607 11.9311 29.5367 11.9255 30.0839 11.9205C30.6355 11.9155 31.3693 11.9112 32.1525 11.9088L34.9997 11.9L35.1 11.8997V12V14.5122V17.0245V17.1234L35.0011 17.1245L33.1816 17.1441C31.4406 17.1629 31.3584 17.1711 31.0484 17.2831L24.5878 14.0855ZM24.5878 14.0855L24.5144 14.0175C23.2145 15.4226 22.6553 17.1383 22.5321 20.0211L22.4982 20.8141H20.2971H18H17.9V20.9141V23.5391V26.1641V26.2641H18H20.3056H22.5111M24.5878 14.0855L22.5111 26.2641M22.5111 26.2641V33.082V40V40.1H22.6111H26.1387H29.6662H29.766L29.7662 40.0002L29.7803 33.0959L29.7942 26.2908L32.0423 26.2771L34.3895 26.2629L34.4889 26.2623V26.1629V23.5385V20.9141V20.8141H34.3889H32.0278H29.7667L29.7671 20.1622C29.7677 19.081 29.8416 18.5732 30.0347 18.1871C30.2421 17.7725 30.6156 17.4396 31.0484 17.2831L22.5111 26.2641ZM30.8544 22.1625H33.1222V23.5391V24.9156H30.8611H28.5H28.4V25.0156V31.9336V38.7516H26.1389H23.8778V31.9336V25.0156V24.9156H23.7778H21.4722H19.2667V23.5391V22.1625H21.4722H23.7778H23.8777L23.8778 22.0626L23.8783 21.1465C23.8796 18.7307 24.15 17.2067 24.774 16.0195L24.6854 15.9729L24.774 16.0195C25.5273 14.5859 26.8523 13.6648 28.616 13.359C29.1226 13.2712 29.4984 13.2567 31.5141 13.2529L33.7333 13.2486V14.4799V15.7141L32.7054 15.7438L32.7083 15.8438L32.7054 15.7438C31.3712 15.7824 30.9025 15.8626 30.2408 16.182L30.2408 16.182C29.3985 16.5887 28.8504 17.2547 28.5683 18.2063L28.6642 18.2348L28.5683 18.2063C28.4536 18.5934 28.44 18.81 28.4147 20.3519L28.3866 22.0609L28.3849 22.1625H28.4866H30.8544Z" fill="#1773EA" stroke="#1773EA" stroke-width="0.2"/>
</svg>
