<svg width="54" height="54" viewBox="0 0 54 54" fill="none" xmlns="http://www.w3.org/2000/svg">
<circle cx="26.5" cy="26.5" r="25.5" stroke="#2784EE" stroke-width="2"/>
<path d="M11.4099 17.9847L11.41 17.9847C11.4663 17.9676 11.5538 17.9554 11.6714 17.9455C11.7914 17.9355 11.9504 17.9274 12.1544 17.921C12.5625 17.9082 13.1553 17.9019 13.9861 17.9005C14.967 17.8988 15.5542 17.9013 15.9283 17.9148C16.3015 17.9283 16.4718 17.9529 16.6138 17.9993L16.6138 17.9993C16.9496 18.1093 17.2259 18.272 17.4624 18.512C17.6979 18.7509 17.8901 19.0625 18.064 19.4646C18.599 20.7012 19.2523 21.9002 19.8944 22.8248C20.0478 23.0458 20.3484 23.4356 20.6177 23.7713C20.7521 23.9389 20.8779 24.092 20.9728 24.2029C21.0204 24.2585 21.0594 24.3026 21.0875 24.3323C21.0904 24.3354 21.0932 24.3383 21.0959 24.341C21.1116 24.3362 21.13 24.3301 21.1487 24.3234C21.1493 24.3218 21.1501 24.3197 21.151 24.3171C21.1599 24.2912 21.169 24.2413 21.1759 24.1465C21.1895 23.9594 21.1928 23.6326 21.1928 23.0575V21.8002L21.0136 21.711L21.0574 21.623L21.0136 21.711C20.8346 21.6218 20.6417 21.4667 20.4734 21.2913C20.3049 21.1157 20.1546 20.9129 20.0649 20.7231C19.9495 20.4787 19.9127 20.2773 19.9119 19.9267C19.9104 19.1057 20.3506 18.4418 21.1211 18.0935L21.4706 17.9355L21.4902 17.9266H21.5118H24.6713H27.8308H27.8539L27.8747 17.9367L28.241 18.1157L28.1972 18.2054L28.241 18.1157C28.7102 18.3449 29.0881 18.7443 29.267 19.2051L29.2671 19.2051C29.3321 19.3728 29.3653 19.4997 29.3824 19.8725C29.3993 20.2407 29.401 20.8587 29.401 22.0115C29.401 23.3252 29.4043 24.0018 29.4451 24.3772C29.4655 24.5645 29.4943 24.6643 29.529 24.7276C29.5616 24.7871 29.6037 24.8223 29.6771 24.8719C29.8693 25.0016 30.1717 24.9777 30.3511 24.8135L30.4108 24.8787L30.3511 24.8135L30.3512 24.8134C30.352 24.8125 30.3573 24.8069 30.3685 24.7928C30.3798 24.7786 30.3944 24.7592 30.4124 24.7346C30.4483 24.6855 30.4959 24.6178 30.554 24.5333C30.67 24.3644 30.8263 24.1303 31.0119 23.848C31.3831 23.2834 31.8704 22.5272 32.3841 21.7157C32.9025 20.8968 33.3982 20.1305 33.7818 19.5517C33.9736 19.2623 34.1377 19.0194 34.2627 18.84C34.3252 18.7503 34.3783 18.676 34.4204 18.6195C34.4609 18.5651 34.4954 18.5216 34.5192 18.4982C34.6655 18.3544 34.928 18.17 35.1095 18.0839L35.4207 17.9362L35.4411 17.9266H35.4636H37.9974H40.5313H40.5558L40.5776 17.938L40.9715 18.1439C41.421 18.3788 41.6977 18.6704 41.919 19.1402L41.919 19.1402C42.0159 19.3459 42.0649 19.6147 42.0698 19.8814C42.0748 20.1484 42.0358 20.4238 41.9479 20.6436C41.9479 20.6436 41.9478 20.6436 41.9478 20.6436L41.855 20.6064C41.7907 20.7672 40.7987 22.1522 39.6088 23.7427C38.4368 25.3093 37.4394 26.6795 37.3925 26.7876L11.4099 17.9847ZM11.4099 17.9847C10.8049 18.1682 10.4143 18.4713 10.1293 18.9856C10.0335 19.1583 9.97457 19.2758 9.94197 19.4136C9.90983 19.5495 9.90456 19.7001 9.90313 19.9364L9.90313 19.9364L9.9 20.4596L9.89985 20.4844L9.91133 20.5064L10.6763 21.9736L10.6763 21.9736C12.29 25.0684 13.9291 27.4963 15.8982 29.7064C16.609 30.5042 18.3566 32.1734 19.1964 32.8565C20.4479 33.8747 22.4348 35.2403 23.2351 35.6298L23.2749 35.5481L23.2351 35.6298C24.5365 36.2631 26.1841 36.2477 27.4973 35.5913C27.7907 35.4446 28.1273 35.1895 28.4192 34.913C28.7101 34.6373 28.9668 34.331 29.0928 34.0774L29.0114 34.0369L29.0928 34.0774C29.2245 33.8123 29.3025 33.6086 29.3462 33.3093C29.3891 33.0152 29.3987 32.6299 29.3995 32.0024C29.4003 31.3747 29.4121 31.0157 29.4556 30.7905C29.477 30.68 29.505 30.6082 29.5389 30.5552C29.5723 30.5031 29.6154 30.463 29.6771 30.4213L29.6771 30.4213C29.7455 30.3751 29.8608 30.3454 29.9858 30.3435C30.1096 30.3417 30.2198 30.3676 30.283 30.409L11.4099 17.9847ZM29.6212 30.3384C29.3451 30.5248 29.3011 30.7523 29.2995 32.0023C29.2978 33.2597 29.2606 33.5148 29.0032 34.0329C28.7665 34.5092 28.0159 35.2203 27.4526 35.5019C26.1667 36.1446 24.5518 36.1593 23.2789 35.5399C22.4889 35.1554 20.5091 33.7955 19.2595 32.779C18.4238 32.0991 16.6801 30.4337 15.9729 29.6399C14.0101 27.4369 12.3756 25.0161 10.765 21.9274L29.6212 30.3384ZM29.6212 30.3384C29.8019 30.2164 30.1686 30.211 30.3417 30.3279L29.6212 30.3384ZM16.633 20.0118L16.633 20.0118C16.5952 19.9228 16.541 19.8225 16.4841 19.7334C16.4263 19.6428 16.3701 19.5707 16.3299 19.5336L16.1778 19.393L14.0779 19.3848C13.49 19.3826 12.9405 19.3835 12.5287 19.3869C12.3227 19.3886 12.1515 19.3909 12.0273 19.3937C11.9652 19.3951 11.9153 19.3966 11.8789 19.3982C11.8606 19.399 11.8463 19.3998 11.8358 19.4006C11.8261 19.4013 11.8224 19.4018 11.8224 19.4018C11.8224 19.4018 11.8226 19.4017 11.823 19.4016C11.5766 19.4505 11.407 19.6935 11.439 20.0333C11.439 20.033 11.4391 20.0332 11.4393 20.034C11.44 20.037 11.4428 20.0479 11.4508 20.0702C11.46 20.0957 11.4735 20.1294 11.4914 20.1709C11.5271 20.2538 11.5784 20.364 11.6422 20.4957C11.7697 20.7588 11.9456 21.1041 12.1433 21.4807C12.5388 22.234 13.0198 23.1095 13.3716 23.6986C15.941 28.0012 19.0347 31.2239 23.0768 33.8097C23.5712 34.1261 23.8913 34.3096 24.1828 34.4201C24.4711 34.5295 24.7359 34.569 25.1225 34.5885C26.0906 34.6372 26.8695 34.3732 27.3864 33.8404L27.4516 33.9038L27.3864 33.8404C27.62 33.5997 27.7253 33.4763 27.7868 33.2281C27.8519 32.9656 27.8667 32.5675 27.8867 31.7755C27.9073 30.9621 27.93 30.494 28.0238 30.167C28.1213 29.8269 28.295 29.6407 28.5855 29.3848C29.3589 28.7035 30.5551 28.669 31.3167 29.3152C31.3609 29.3528 31.4583 29.4588 31.5899 29.6085C31.7243 29.7613 31.9006 29.9668 32.1061 30.2103C32.5174 30.6972 33.047 31.3368 33.5959 32.0117L33.5183 32.0748L33.5959 32.0117C34.1442 32.686 34.6572 33.3087 35.0419 33.7688C35.2343 33.9989 35.3944 34.188 35.5107 34.3224C35.5689 34.3897 35.6157 34.4428 35.65 34.4804C35.6672 34.4992 35.6807 34.5135 35.6905 34.5236C35.6965 34.5296 35.6999 34.5328 35.7012 34.534C35.7108 34.5394 35.7386 34.5506 35.8111 34.5609C35.8874 34.5718 36.0013 34.5804 36.1731 34.5867C36.516 34.5995 37.077 34.6033 38.0029 34.6033C39.0952 34.6033 39.6499 34.6025 39.953 34.5863C40.1051 34.5781 40.1858 34.5664 40.2366 34.5517C40.2817 34.5387 40.3046 34.5234 40.342 34.4951C40.5237 34.3572 40.5954 34.1741 40.5585 34.0003C40.5572 33.9977 40.5551 33.9937 40.5521 33.9884C40.5445 33.9748 40.533 33.9559 40.5173 33.9313C40.4861 33.8822 40.4408 33.8143 40.3825 33.7294C40.2659 33.5597 40.0995 33.3246 39.8953 33.041C39.4871 32.4739 38.9289 31.7145 38.3196 30.8997C37.101 29.2702 36.4828 28.4427 36.1798 27.9321C36.0273 27.6752 35.9496 27.4905 35.9171 27.3184C35.8847 27.1467 35.8991 26.9948 35.9166 26.8139C35.9381 26.5915 36.0198 26.2951 36.1079 26.13L36.1079 26.1299C36.1314 26.0859 36.2151 25.9641 36.3381 25.7907C36.4636 25.6138 36.6356 25.3757 36.8415 25.0937C37.2533 24.5296 37.8014 23.7887 38.3866 23.0071C38.9714 22.2259 39.5073 21.4999 39.8997 20.9595C40.0959 20.6893 40.256 20.4658 40.3683 20.3052C40.4244 20.2248 40.4682 20.1607 40.4985 20.1146C40.5137 20.0915 40.5249 20.0737 40.5324 20.0611C40.5353 20.0561 40.5374 20.0525 40.5388 20.0499C40.6182 19.7493 40.4061 19.445 40.0268 19.3912L40.0381 19.3116L40.0268 19.3912C39.998 19.3871 39.9141 19.3828 39.7792 19.3793C39.6473 19.3759 39.4728 19.3733 39.2681 19.3717C38.8587 19.3684 38.3295 19.369 37.7794 19.3742C36.9713 19.3818 36.4662 19.3908 36.1497 19.4065C35.9912 19.4143 35.8829 19.4238 35.8086 19.435C35.7429 19.445 35.7125 19.4553 35.6996 19.4615C35.698 19.4634 35.6958 19.4658 35.6932 19.469C35.6838 19.48 35.6709 19.4965 35.6543 19.5186C35.6211 19.5627 35.576 19.6257 35.5199 19.7062C35.4079 19.867 35.2544 20.0944 35.0703 20.372C34.7022 20.9271 34.2129 21.6811 33.6914 22.5L33.6231 22.4565L33.6914 22.5C33.1694 23.3195 32.6677 24.0947 32.2798 24.6836C32.0859 24.978 31.9203 25.2261 31.7947 25.41C31.6715 25.5905 31.582 25.7164 31.5432 25.7594L31.5432 25.7594C30.5387 26.8742 28.7178 26.5924 28.0635 25.2276C28.0294 25.1564 28.001 25.0911 27.9793 24.9933C27.9582 24.8982 27.9439 24.775 27.933 24.587C27.9113 24.2113 27.9022 23.5572 27.8872 22.3101C27.8762 21.3986 27.863 20.7422 27.846 20.3032C27.8376 20.0835 27.8282 19.9196 27.818 19.8059C27.8128 19.7489 27.8075 19.7062 27.8024 19.6761C27.7998 19.661 27.7974 19.6505 27.7956 19.6437C27.7951 19.642 27.7947 19.6408 27.7944 19.6399C27.7525 19.5698 27.7282 19.5362 27.6783 19.5088C27.6212 19.4775 27.5223 19.4505 27.3187 19.4318C26.9136 19.3944 26.1534 19.3932 24.64 19.3932C23.5075 19.3932 22.794 19.3973 22.3479 19.4095C22.1247 19.4157 21.9705 19.4238 21.865 19.4342L16.633 20.0118ZM16.633 20.0118C16.8973 20.6348 17.5628 21.9577 17.8993 22.5289M16.633 20.0118L21.9432 25.5892C21.8076 25.6699 21.7055 25.722 21.5843 25.7515C21.4651 25.7806 21.3333 25.7864 21.1413 25.7864C20.8399 25.7864 20.6029 25.7454 20.3724 25.6208C20.1451 25.498 19.9324 25.2983 19.6708 24.9982C19.1568 24.4091 18.3176 23.239 17.8993 22.5289M17.8993 22.5289L17.9838 22.4791L17.8993 22.5289C17.8993 22.5289 17.8993 22.5289 17.8993 22.5289ZM21.4353 19.913C21.4401 19.7261 21.5319 19.5504 21.6991 19.4641L21.6766 20.3814C21.6766 20.3814 21.6766 20.3814 21.6766 20.3814C21.513 20.2828 21.4305 20.0999 21.4353 19.913Z" fill="#2783F1" stroke="#2784EE" stroke-width="0.2"/>
</svg>
