<svg width="53" height="53" viewBox="0 0 53 53" fill="none" xmlns="http://www.w3.org/2000/svg">
<circle cx="26.5" cy="26.5" r="25.5" stroke="#33AE14" stroke-width="2"/>
<path fill-rule="evenodd" clip-rule="evenodd" d="M25.7468 14.0148C25.6661 14.0262 25.391 14.0588 25.1354 14.0875C21.0253 14.5478 17.2579 17.1478 15.4001 20.806C13.6366 24.2786 13.6585 28.49 15.4587 32.0345L15.749 32.6061L14.8694 35.798C14.3857 37.5535 13.9945 38.9944 14.0001 38.9999C14.0056 39.0055 15.4899 38.6242 17.2983 38.1525L20.5865 37.295L21.0394 37.5152C22.3402 38.1476 23.7016 38.5526 25.1109 38.7262C25.8238 38.8141 27.3354 38.8025 28.0702 38.7035C32.6514 38.0865 36.516 35.1177 38.1635 30.9497C38.7619 29.4356 39.0018 28.1245 39 26.3789C38.9988 25.2166 38.9441 24.6748 38.7288 23.6902C38.2844 21.6584 37.1999 19.5703 35.8291 18.1072C35.6329 17.8977 35.4521 17.6899 35.4275 17.6453C35.3622 17.5272 34.6684 16.9159 34.1599 16.5283C33.2162 15.8091 31.9798 15.1307 30.8827 14.7302C30.2416 14.496 29.1246 14.2146 28.4126 14.1077C27.9264 14.0347 26.0671 13.9699 25.7468 14.0148ZM28.2903 16.1831C30.4854 16.5641 32.3433 17.5249 33.9183 19.0935C35.4424 20.6115 36.3935 22.4494 36.803 24.6679C36.9266 25.3379 36.9533 26.9125 36.8539 27.6678C36.5175 30.2219 35.3088 32.4673 33.3864 34.1094C31.5206 35.703 29.3026 36.5727 26.8935 36.6552C24.9313 36.7224 23.177 36.2893 21.4133 35.3022L20.8927 35.0108L18.9542 35.5136C17.8592 35.7976 17.0161 35.9936 17.0165 35.9639C17.0169 35.9351 17.2471 35.0803 17.528 34.0644L18.0388 32.2172L17.827 31.889C15.707 28.603 15.6631 24.4432 17.7123 21.0333C18.53 19.6728 19.8096 18.3772 21.149 17.5539C21.6091 17.271 22.6733 16.7665 23.1491 16.6057C23.8825 16.3578 24.8315 16.1543 25.649 16.0696C26.1554 16.0172 27.7219 16.0845 28.2903 16.1831ZM21.687 20.7266C21.2883 20.9091 20.6973 21.697 20.4238 22.4107C20.2763 22.7958 20.2707 22.8378 20.2699 23.568C20.2692 24.2998 20.2746 24.3416 20.4305 24.7902C20.7271 25.6436 21.1985 26.4312 22.0232 27.4508C24.1509 30.0815 25.5374 31.0825 28.3637 32.0286C29.7058 32.4779 30.8025 32.3615 31.8342 31.6602C32.4859 31.2172 32.7391 30.7847 32.86 29.9088C32.9266 29.4257 32.8864 29.2551 32.6724 29.1136C32.5749 29.0491 32.4186 28.9811 32.3249 28.9624C32.2311 28.9437 31.7692 28.7428 31.2985 28.5159C30.2282 28.0001 30.0219 27.9188 29.7828 27.9188C29.5971 27.9188 29.5775 27.936 29.1316 28.4932C28.36 29.4573 28.3084 29.507 28.0851 29.5011C27.8273 29.4944 26.7769 28.9906 26.1658 28.5807C25.1351 27.8892 24.1517 26.8366 23.5715 25.8037C23.3727 25.4498 23.3886 25.3788 23.7641 24.9428C24.1163 24.5337 24.433 24.0527 24.4746 23.8634C24.5193 23.6602 23.4219 21.0208 23.1984 20.7938L23.0419 20.6349L22.4623 20.636C22.0059 20.6368 21.841 20.6561 21.687 20.7266Z" fill="#38AD1A"/>
</svg>
