<svg width="53" height="53" viewBox="0 0 53 53" fill="none" xmlns="http://www.w3.org/2000/svg">
<circle cx="26.5" cy="26.5" r="25.5" stroke="#CC0909" stroke-width="2"/>
<g clip-path="url(#clip0_401:15)">
<path d="M31.3099 25.7417L25.124 22.3571C24.7683 22.1624 24.3479 22.1697 23.9993 22.3763C23.6505 22.5831 23.4424 22.9484 23.4424 23.3538V30.065C23.4424 30.4685 23.6492 30.8332 23.9957 31.0402C24.1766 31.1483 24.3772 31.2025 24.5782 31.2025C24.7624 31.2025 24.9469 31.157 25.1168 31.0656L31.3028 27.7393C31.67 27.5417 31.8993 27.1599 31.901 26.7427C31.9025 26.3255 31.676 25.9421 31.3099 25.7417ZM25.0832 29.2208V24.2049L29.7064 26.7346L25.0832 29.2208Z" fill="#CC0909"/>
<path d="M40.794 21.396L40.7927 21.3832C40.769 21.1578 40.5329 19.1532 39.5584 18.1336C38.4319 16.9343 37.1549 16.7886 36.5407 16.7188C36.4899 16.713 36.4433 16.7076 36.4017 16.7021L36.3528 16.697C32.6511 16.4278 27.0608 16.3911 27.0049 16.3908L26.9999 16.3906L26.995 16.3908C26.9391 16.3911 21.3488 16.4278 17.6138 16.697L17.5645 16.7021C17.5247 16.7074 17.4809 16.7123 17.4333 16.7179C16.8262 16.788 15.5628 16.9339 14.4332 18.1765C13.505 19.1852 13.2367 21.1469 13.2091 21.3674L13.2059 21.396C13.1976 21.4898 13 23.7224 13 25.9637V28.0589C13 30.3003 13.1976 32.5328 13.2059 32.6268L13.2074 32.6409C13.2311 32.8627 13.467 34.8306 14.437 35.8506C15.4962 37.0097 16.8354 37.1631 17.5557 37.2456C17.6696 37.2586 17.7676 37.2697 17.8345 37.2815L17.8992 37.2904C20.0365 37.4938 26.7376 37.594 27.0217 37.5981L27.0303 37.5983L27.0388 37.5981C27.0948 37.5978 32.6849 37.5611 36.3865 37.2919L36.4354 37.2868C36.4822 37.2806 36.5348 37.2751 36.5924 37.2691C37.1961 37.205 38.4527 37.0719 39.5667 35.8461C40.4949 34.8372 40.7634 32.8755 40.7908 32.6552L40.794 32.6266C40.8023 32.5326 41.0001 30.3003 41.0001 28.0589V25.9637C40.9999 23.7224 40.8023 21.49 40.794 21.396ZM39.3591 28.0589C39.3591 30.1334 39.1779 32.2699 39.1608 32.466C39.0912 33.0062 38.8081 34.2474 38.3559 34.7389C37.6586 35.506 36.9423 35.5821 36.4194 35.6374C36.3562 35.644 36.2976 35.6505 36.2447 35.6571C32.6644 35.916 27.2851 35.9557 27.0373 35.9572C26.7594 35.9532 20.1563 35.8521 18.0842 35.6596C17.978 35.6423 17.8633 35.6291 17.7424 35.6154C17.1291 35.5451 16.2896 35.449 15.644 34.7389L15.6288 34.7227C15.1845 34.2598 14.9096 33.0992 14.8397 32.4724C14.8267 32.3241 14.6408 30.1625 14.6408 28.0589V25.9637C14.6408 23.8916 14.8216 21.7575 14.8391 21.5573C14.9222 20.9209 15.2106 19.755 15.644 19.2837C16.3626 18.4933 17.1203 18.4057 17.6215 18.3478C17.6694 18.3423 17.714 18.3372 17.7552 18.3318C21.3877 18.0716 26.8055 18.033 26.9999 18.0315C27.1943 18.0327 32.6103 18.0716 36.2105 18.3318C36.2547 18.3374 36.303 18.3429 36.3549 18.3489C36.8704 18.4077 37.6494 18.4965 38.3644 19.2592L38.3711 19.2662C38.8154 19.7291 39.0903 20.91 39.1602 21.5494C39.1726 21.6893 39.3591 23.8557 39.3591 25.9637V28.0589Z" fill="#CC0909"/>
</g>
<defs>
<clipPath id="clip0_401:15">
<rect width="28" height="28" fill="white" transform="translate(13 13)"/>
</clipPath>
</defs>
</svg>
