<svg width="53" height="53" viewBox="0 0 53 53" fill="none" xmlns="http://www.w3.org/2000/svg">
<circle cx="26.5" cy="26.5" r="25.5" stroke="#9838BD" stroke-width="2"/>
<mask id="path-2-outside-1_401:53" maskUnits="userSpaceOnUse" x="12" y="13" width="29" height="29" fill="black">
<rect fill="white" x="12" y="13" width="29" height="29"/>
<path fill-rule="evenodd" clip-rule="evenodd" d="M23.7685 14.0467C21.9412 14.1273 19.4031 14.3501 18.6203 14.4987C16.0012 14.9956 13.883 16.9745 13.3287 19.4421C13.2086 19.9767 13.0946 21.6139 13.0256 23.7966C12.9327 26.7379 13.1038 30.9515 13.3573 31.964C13.8073 33.7611 15.0418 35.295 16.7151 36.1359C17.5753 36.5683 18.208 36.7487 19.3116 36.8761C19.6967 36.9206 20.0928 36.9693 20.1919 36.9842L20.3722 37.0114L20.3867 39.0057L20.4013 41L23.8762 39.1435L27.3511 37.2871L28.4957 37.2532C30.3886 37.1973 32.944 37.002 34.1571 36.8206C35.5632 36.6103 36.7713 36.0247 37.7987 35.0554C38.4061 34.4825 38.7382 34.0579 39.0737 33.4251C39.5675 32.494 39.7519 31.7346 39.8513 30.2233C40.0692 26.9071 40.0462 23.0946 39.7915 20.325C39.6477 18.7626 39.0437 17.4683 37.9576 16.3952C37.0122 15.4611 35.9687 14.8783 34.6789 14.564C33.9157 14.378 31.3824 14.1424 29.0837 14.0435C27.706 13.9842 25.1502 13.9858 23.7685 14.0467ZM30.1134 15.2556C32.4675 15.4081 34.0288 15.5848 34.6494 15.769C36.6189 16.3537 38.0764 17.8622 38.4644 19.7177C38.5919 20.3275 38.6695 21.4195 38.7509 23.7526C38.8537 26.6971 38.6777 30.8587 38.408 31.8598C37.9318 33.628 36.356 35.1271 34.5007 35.5771C33.6853 35.7748 30.5834 36.0354 28.3642 36.0925L27.0324 36.1268L24.3291 37.571L21.6258 39.0152L21.611 37.4862L21.5963 35.9573L21.3606 35.9283C21.2309 35.9124 20.6365 35.8489 20.0396 35.7873C19.4426 35.7256 18.7745 35.6318 18.5549 35.5788C16.6037 35.1075 15.0854 33.6601 14.5805 31.7899C14.1249 30.1022 14.1287 21.2819 14.5859 19.486C15.0901 17.5052 16.9298 15.9292 19.1212 15.601C19.8222 15.496 21.7612 15.3253 23.0172 15.258C23.5988 15.2268 24.2249 15.1928 24.4086 15.1825C25.0525 15.1464 29.2594 15.2004 30.1134 15.2556ZM26.4957 18.0469V18.6196L27.1775 18.6798C29.6794 18.9008 31.5381 20.0345 32.5285 21.9434C32.9539 22.7634 33.1584 23.5097 33.2204 24.4691L33.258 25.0498L33.8375 25.0649C34.1563 25.0733 34.435 25.0614 34.4569 25.0386C34.5214 24.9711 34.4159 23.8258 34.2921 23.2492C34.069 22.2109 33.7204 21.4004 33.1493 20.5923C32.6673 19.9104 32.2147 19.4514 31.5707 18.9916C30.4016 18.1569 29.0762 17.6868 27.4499 17.5299C27.1329 17.4993 26.7885 17.4743 26.6846 17.4743H26.4957V18.0469ZM20.3338 19.3428C19.9171 19.4716 19.626 19.6737 19.0802 20.2131C18.5 20.7864 18.176 21.3066 18.0087 21.933C17.8938 22.363 17.8951 23.9469 18.0109 24.6999C18.5147 27.9755 20.6588 30.757 23.7964 32.2053C25.3096 32.9037 26.7489 33.2072 28.5389 33.2051C29.4666 33.204 29.9285 33.12 30.5308 32.8431C31.2553 32.5099 32.1893 31.6689 32.4729 31.0943C32.5687 30.9001 32.5901 30.7557 32.5901 30.3025C32.5901 29.502 32.5004 29.3496 31.3983 28.2785C30.3584 27.268 30.0289 27.0239 29.5331 26.8966C28.7874 26.7051 28.0757 26.8784 27.4697 27.399C27.2925 27.5512 27.0106 27.7352 26.8434 27.8078C26.5805 27.922 26.4817 27.9367 26.112 27.9163C25.4967 27.8825 25.2531 27.7387 24.3877 26.8982C23.7905 26.3183 23.6532 26.1543 23.5537 25.9021C23.3127 25.291 23.4268 24.8082 23.9439 24.2508C24.1289 24.0515 24.359 23.734 24.4554 23.5453C24.6122 23.2383 24.6307 23.1521 24.6307 22.727C24.6307 22.2993 24.6123 22.2151 24.4474 21.8842C24.2879 21.5643 24.1326 21.3922 23.251 20.5593C22.0303 19.4059 21.8628 19.3079 21.0723 19.2849C20.7551 19.2758 20.4814 19.2972 20.3338 19.3428ZM26.4957 20.3778C26.4957 20.6972 26.5145 20.9589 26.5374 20.9594C26.8043 20.9653 27.6981 21.0828 27.9635 21.147C29.6105 21.5451 30.6389 22.7997 30.7731 24.5747L30.8091 25.0498L31.4074 25.0648L32.0057 25.0798V24.7154C32.0057 24.5149 31.9671 24.14 31.9198 23.8821C31.493 21.5523 29.8079 20.1073 27.2192 19.8512C26.9284 19.8225 26.6466 19.7985 26.5931 19.798C26.5062 19.7972 26.4957 19.8596 26.4957 20.3778ZM21.2095 20.43C21.4928 20.5047 23.3501 22.2829 23.406 22.5332C23.4762 22.8469 23.3935 23.0441 23.0136 23.468C22.8149 23.6899 22.5902 23.9876 22.5143 24.1298C22.0982 24.9086 22.1106 25.788 22.5497 26.6207C22.6856 26.8785 22.919 27.1358 23.6217 27.8023C24.5941 28.7247 24.8771 28.9082 25.5629 29.0616C26.4598 29.2622 27.4129 29.0199 28.1156 28.4127C28.5982 27.9957 28.8835 27.9017 29.261 28.0351C29.4404 28.0985 31.1933 29.7281 31.3138 29.9435C31.4155 30.1254 31.4162 30.4776 31.3152 30.6615C31.2033 30.8654 30.4093 31.5798 30.1134 31.7428C29.7124 31.9636 29.2796 32.0446 28.5001 32.0446C27.3715 32.0446 26.4479 31.9074 25.4417 31.5904C22.3148 30.6052 20.0223 28.1528 19.3116 25.0327C19.2256 24.6551 19.1874 24.2512 19.1651 23.4842C19.1375 22.5304 19.1446 22.4167 19.253 22.0784C19.4865 21.349 20.4402 20.3992 20.9579 20.3804C20.9885 20.3793 21.1017 20.4016 21.2095 20.43ZM26.5153 22.2004C26.5022 22.2329 26.4987 22.4953 26.5075 22.7835L26.5235 23.3077L26.9184 23.3412C27.4046 23.3824 27.7491 23.5216 27.9786 23.7695C28.1898 23.9976 28.2741 24.224 28.3232 24.6946L28.3602 25.0498L28.9585 25.0648L29.5568 25.0798L29.5559 24.8008C29.5534 24.1048 29.2404 23.3063 28.81 22.898C28.5413 22.6431 28.0437 22.3735 27.6645 22.2771C27.2781 22.179 26.5438 22.13 26.5153 22.2004Z"/>
</mask>
<path fill-rule="evenodd" clip-rule="evenodd" d="M23.7685 14.0467C21.9412 14.1273 19.4031 14.3501 18.6203 14.4987C16.0012 14.9956 13.883 16.9745 13.3287 19.4421C13.2086 19.9767 13.0946 21.6139 13.0256 23.7966C12.9327 26.7379 13.1038 30.9515 13.3573 31.964C13.8073 33.7611 15.0418 35.295 16.7151 36.1359C17.5753 36.5683 18.208 36.7487 19.3116 36.8761C19.6967 36.9206 20.0928 36.9693 20.1919 36.9842L20.3722 37.0114L20.3867 39.0057L20.4013 41L23.8762 39.1435L27.3511 37.2871L28.4957 37.2532C30.3886 37.1973 32.944 37.002 34.1571 36.8206C35.5632 36.6103 36.7713 36.0247 37.7987 35.0554C38.4061 34.4825 38.7382 34.0579 39.0737 33.4251C39.5675 32.494 39.7519 31.7346 39.8513 30.2233C40.0692 26.9071 40.0462 23.0946 39.7915 20.325C39.6477 18.7626 39.0437 17.4683 37.9576 16.3952C37.0122 15.4611 35.9687 14.8783 34.6789 14.564C33.9157 14.378 31.3824 14.1424 29.0837 14.0435C27.706 13.9842 25.1502 13.9858 23.7685 14.0467ZM30.1134 15.2556C32.4675 15.4081 34.0288 15.5848 34.6494 15.769C36.6189 16.3537 38.0764 17.8622 38.4644 19.7177C38.5919 20.3275 38.6695 21.4195 38.7509 23.7526C38.8537 26.6971 38.6777 30.8587 38.408 31.8598C37.9318 33.628 36.356 35.1271 34.5007 35.5771C33.6853 35.7748 30.5834 36.0354 28.3642 36.0925L27.0324 36.1268L24.3291 37.571L21.6258 39.0152L21.611 37.4862L21.5963 35.9573L21.3606 35.9283C21.2309 35.9124 20.6365 35.8489 20.0396 35.7873C19.4426 35.7256 18.7745 35.6318 18.5549 35.5788C16.6037 35.1075 15.0854 33.6601 14.5805 31.7899C14.1249 30.1022 14.1287 21.2819 14.5859 19.486C15.0901 17.5052 16.9298 15.9292 19.1212 15.601C19.8222 15.496 21.7612 15.3253 23.0172 15.258C23.5988 15.2268 24.2249 15.1928 24.4086 15.1825C25.0525 15.1464 29.2594 15.2004 30.1134 15.2556ZM26.4957 18.0469V18.6196L27.1775 18.6798C29.6794 18.9008 31.5381 20.0345 32.5285 21.9434C32.9539 22.7634 33.1584 23.5097 33.2204 24.4691L33.258 25.0498L33.8375 25.0649C34.1563 25.0733 34.435 25.0614 34.4569 25.0386C34.5214 24.9711 34.4159 23.8258 34.2921 23.2492C34.069 22.2109 33.7204 21.4004 33.1493 20.5923C32.6673 19.9104 32.2147 19.4514 31.5707 18.9916C30.4016 18.1569 29.0762 17.6868 27.4499 17.5299C27.1329 17.4993 26.7885 17.4743 26.6846 17.4743H26.4957V18.0469ZM20.3338 19.3428C19.9171 19.4716 19.626 19.6737 19.0802 20.2131C18.5 20.7864 18.176 21.3066 18.0087 21.933C17.8938 22.363 17.8951 23.9469 18.0109 24.6999C18.5147 27.9755 20.6588 30.757 23.7964 32.2053C25.3096 32.9037 26.7489 33.2072 28.5389 33.2051C29.4666 33.204 29.9285 33.12 30.5308 32.8431C31.2553 32.5099 32.1893 31.6689 32.4729 31.0943C32.5687 30.9001 32.5901 30.7557 32.5901 30.3025C32.5901 29.502 32.5004 29.3496 31.3983 28.2785C30.3584 27.268 30.0289 27.0239 29.5331 26.8966C28.7874 26.7051 28.0757 26.8784 27.4697 27.399C27.2925 27.5512 27.0106 27.7352 26.8434 27.8078C26.5805 27.922 26.4817 27.9367 26.112 27.9163C25.4967 27.8825 25.2531 27.7387 24.3877 26.8982C23.7905 26.3183 23.6532 26.1543 23.5537 25.9021C23.3127 25.291 23.4268 24.8082 23.9439 24.2508C24.1289 24.0515 24.359 23.734 24.4554 23.5453C24.6122 23.2383 24.6307 23.1521 24.6307 22.727C24.6307 22.2993 24.6123 22.2151 24.4474 21.8842C24.2879 21.5643 24.1326 21.3922 23.251 20.5593C22.0303 19.4059 21.8628 19.3079 21.0723 19.2849C20.7551 19.2758 20.4814 19.2972 20.3338 19.3428ZM26.4957 20.3778C26.4957 20.6972 26.5145 20.9589 26.5374 20.9594C26.8043 20.9653 27.6981 21.0828 27.9635 21.147C29.6105 21.5451 30.6389 22.7997 30.7731 24.5747L30.8091 25.0498L31.4074 25.0648L32.0057 25.0798V24.7154C32.0057 24.5149 31.9671 24.14 31.9198 23.8821C31.493 21.5523 29.8079 20.1073 27.2192 19.8512C26.9284 19.8225 26.6466 19.7985 26.5931 19.798C26.5062 19.7972 26.4957 19.8596 26.4957 20.3778ZM21.2095 20.43C21.4928 20.5047 23.3501 22.2829 23.406 22.5332C23.4762 22.8469 23.3935 23.0441 23.0136 23.468C22.8149 23.6899 22.5902 23.9876 22.5143 24.1298C22.0982 24.9086 22.1106 25.788 22.5497 26.6207C22.6856 26.8785 22.919 27.1358 23.6217 27.8023C24.5941 28.7247 24.8771 28.9082 25.5629 29.0616C26.4598 29.2622 27.4129 29.0199 28.1156 28.4127C28.5982 27.9957 28.8835 27.9017 29.261 28.0351C29.4404 28.0985 31.1933 29.7281 31.3138 29.9435C31.4155 30.1254 31.4162 30.4776 31.3152 30.6615C31.2033 30.8654 30.4093 31.5798 30.1134 31.7428C29.7124 31.9636 29.2796 32.0446 28.5001 32.0446C27.3715 32.0446 26.4479 31.9074 25.4417 31.5904C22.3148 30.6052 20.0223 28.1528 19.3116 25.0327C19.2256 24.6551 19.1874 24.2512 19.1651 23.4842C19.1375 22.5304 19.1446 22.4167 19.253 22.0784C19.4865 21.349 20.4402 20.3992 20.9579 20.3804C20.9885 20.3793 21.1017 20.4016 21.2095 20.43ZM26.5153 22.2004C26.5022 22.2329 26.4987 22.4953 26.5075 22.7835L26.5235 23.3077L26.9184 23.3412C27.4046 23.3824 27.7491 23.5216 27.9786 23.7695C28.1898 23.9976 28.2741 24.224 28.3232 24.6946L28.3602 25.0498L28.9585 25.0648L29.5568 25.0798L29.5559 24.8008C29.5534 24.1048 29.2404 23.3063 28.81 22.898C28.5413 22.6431 28.0437 22.3735 27.6645 22.2771C27.2781 22.179 26.5438 22.13 26.5153 22.2004Z" fill="#7E15B6"/>
<path fill-rule="evenodd" clip-rule="evenodd" d="M23.7685 14.0467C21.9412 14.1273 19.4031 14.3501 18.6203 14.4987C16.0012 14.9956 13.883 16.9745 13.3287 19.4421C13.2086 19.9767 13.0946 21.6139 13.0256 23.7966C12.9327 26.7379 13.1038 30.9515 13.3573 31.964C13.8073 33.7611 15.0418 35.295 16.7151 36.1359C17.5753 36.5683 18.208 36.7487 19.3116 36.8761C19.6967 36.9206 20.0928 36.9693 20.1919 36.9842L20.3722 37.0114L20.3867 39.0057L20.4013 41L23.8762 39.1435L27.3511 37.2871L28.4957 37.2532C30.3886 37.1973 32.944 37.002 34.1571 36.8206C35.5632 36.6103 36.7713 36.0247 37.7987 35.0554C38.4061 34.4825 38.7382 34.0579 39.0737 33.4251C39.5675 32.494 39.7519 31.7346 39.8513 30.2233C40.0692 26.9071 40.0462 23.0946 39.7915 20.325C39.6477 18.7626 39.0437 17.4683 37.9576 16.3952C37.0122 15.4611 35.9687 14.8783 34.6789 14.564C33.9157 14.378 31.3824 14.1424 29.0837 14.0435C27.706 13.9842 25.1502 13.9858 23.7685 14.0467ZM30.1134 15.2556C32.4675 15.4081 34.0288 15.5848 34.6494 15.769C36.6189 16.3537 38.0764 17.8622 38.4644 19.7177C38.5919 20.3275 38.6695 21.4195 38.7509 23.7526C38.8537 26.6971 38.6777 30.8587 38.408 31.8598C37.9318 33.628 36.356 35.1271 34.5007 35.5771C33.6853 35.7748 30.5834 36.0354 28.3642 36.0925L27.0324 36.1268L24.3291 37.571L21.6258 39.0152L21.611 37.4862L21.5963 35.9573L21.3606 35.9283C21.2309 35.9124 20.6365 35.8489 20.0396 35.7873C19.4426 35.7256 18.7745 35.6318 18.5549 35.5788C16.6037 35.1075 15.0854 33.6601 14.5805 31.7899C14.1249 30.1022 14.1287 21.2819 14.5859 19.486C15.0901 17.5052 16.9298 15.9292 19.1212 15.601C19.8222 15.496 21.7612 15.3253 23.0172 15.258C23.5988 15.2268 24.2249 15.1928 24.4086 15.1825C25.0525 15.1464 29.2594 15.2004 30.1134 15.2556ZM26.4957 18.0469V18.6196L27.1775 18.6798C29.6794 18.9008 31.5381 20.0345 32.5285 21.9434C32.9539 22.7634 33.1584 23.5097 33.2204 24.4691L33.258 25.0498L33.8375 25.0649C34.1563 25.0733 34.435 25.0614 34.4569 25.0386C34.5214 24.9711 34.4159 23.8258 34.2921 23.2492C34.069 22.2109 33.7204 21.4004 33.1493 20.5923C32.6673 19.9104 32.2147 19.4514 31.5707 18.9916C30.4016 18.1569 29.0762 17.6868 27.4499 17.5299C27.1329 17.4993 26.7885 17.4743 26.6846 17.4743H26.4957V18.0469ZM20.3338 19.3428C19.9171 19.4716 19.626 19.6737 19.0802 20.2131C18.5 20.7864 18.176 21.3066 18.0087 21.933C17.8938 22.363 17.8951 23.9469 18.0109 24.6999C18.5147 27.9755 20.6588 30.757 23.7964 32.2053C25.3096 32.9037 26.7489 33.2072 28.5389 33.2051C29.4666 33.204 29.9285 33.12 30.5308 32.8431C31.2553 32.5099 32.1893 31.6689 32.4729 31.0943C32.5687 30.9001 32.5901 30.7557 32.5901 30.3025C32.5901 29.502 32.5004 29.3496 31.3983 28.2785C30.3584 27.268 30.0289 27.0239 29.5331 26.8966C28.7874 26.7051 28.0757 26.8784 27.4697 27.399C27.2925 27.5512 27.0106 27.7352 26.8434 27.8078C26.5805 27.922 26.4817 27.9367 26.112 27.9163C25.4967 27.8825 25.2531 27.7387 24.3877 26.8982C23.7905 26.3183 23.6532 26.1543 23.5537 25.9021C23.3127 25.291 23.4268 24.8082 23.9439 24.2508C24.1289 24.0515 24.359 23.734 24.4554 23.5453C24.6122 23.2383 24.6307 23.1521 24.6307 22.727C24.6307 22.2993 24.6123 22.2151 24.4474 21.8842C24.2879 21.5643 24.1326 21.3922 23.251 20.5593C22.0303 19.4059 21.8628 19.3079 21.0723 19.2849C20.7551 19.2758 20.4814 19.2972 20.3338 19.3428ZM26.4957 20.3778C26.4957 20.6972 26.5145 20.9589 26.5374 20.9594C26.8043 20.9653 27.6981 21.0828 27.9635 21.147C29.6105 21.5451 30.6389 22.7997 30.7731 24.5747L30.8091 25.0498L31.4074 25.0648L32.0057 25.0798V24.7154C32.0057 24.5149 31.9671 24.14 31.9198 23.8821C31.493 21.5523 29.8079 20.1073 27.2192 19.8512C26.9284 19.8225 26.6466 19.7985 26.5931 19.798C26.5062 19.7972 26.4957 19.8596 26.4957 20.3778ZM21.2095 20.43C21.4928 20.5047 23.3501 22.2829 23.406 22.5332C23.4762 22.8469 23.3935 23.0441 23.0136 23.468C22.8149 23.6899 22.5902 23.9876 22.5143 24.1298C22.0982 24.9086 22.1106 25.788 22.5497 26.6207C22.6856 26.8785 22.919 27.1358 23.6217 27.8023C24.5941 28.7247 24.8771 28.9082 25.5629 29.0616C26.4598 29.2622 27.4129 29.0199 28.1156 28.4127C28.5982 27.9957 28.8835 27.9017 29.261 28.0351C29.4404 28.0985 31.1933 29.7281 31.3138 29.9435C31.4155 30.1254 31.4162 30.4776 31.3152 30.6615C31.2033 30.8654 30.4093 31.5798 30.1134 31.7428C29.7124 31.9636 29.2796 32.0446 28.5001 32.0446C27.3715 32.0446 26.4479 31.9074 25.4417 31.5904C22.3148 30.6052 20.0223 28.1528 19.3116 25.0327C19.2256 24.6551 19.1874 24.2512 19.1651 23.4842C19.1375 22.5304 19.1446 22.4167 19.253 22.0784C19.4865 21.349 20.4402 20.3992 20.9579 20.3804C20.9885 20.3793 21.1017 20.4016 21.2095 20.43ZM26.5153 22.2004C26.5022 22.2329 26.4987 22.4953 26.5075 22.7835L26.5235 23.3077L26.9184 23.3412C27.4046 23.3824 27.7491 23.5216 27.9786 23.7695C28.1898 23.9976 28.2741 24.224 28.3232 24.6946L28.3602 25.0498L28.9585 25.0648L29.5568 25.0798L29.5559 24.8008C29.5534 24.1048 29.2404 23.3063 28.81 22.898C28.5413 22.6431 28.0437 22.3735 27.6645 22.2771C27.2781 22.179 26.5438 22.13 26.5153 22.2004Z" stroke="#7E15B6" stroke-width="0.4" mask="url(#path-2-outside-1_401:53)"/>
</svg>
