<svg width="53" height="53" viewBox="0 0 53 53" fill="none" xmlns="http://www.w3.org/2000/svg">
<circle cx="26.5" cy="26.5" r="25.5" stroke="url(#paint0_linear_401:5)" stroke-width="2"/>
<path d="M26.7534 39.3719C26.6682 39.3719 26.583 39.3719 26.4971 39.3715C24.4793 39.3765 22.6149 39.3252 20.8017 39.2148C19.1393 39.1137 17.6219 38.5392 16.4133 37.5536C15.247 36.6027 14.4506 35.3168 14.0462 33.7322C13.6943 32.3527 13.6756 30.9985 13.6577 29.6887C13.6448 28.7489 13.6314 27.6353 13.6287 26.5029C13.6314 25.3657 13.6448 24.2521 13.6577 23.3123C13.6756 22.0027 13.6943 20.6485 14.0462 19.2688C14.4506 17.6842 15.247 16.3984 16.4133 15.4474C17.6219 14.4618 19.1393 13.8873 20.8019 13.7862C22.6151 13.676 24.4799 13.6246 26.5021 13.6295C28.5205 13.6252 30.3843 13.676 32.1975 13.7862C33.8599 13.8873 35.3773 14.4618 36.5859 15.4474C37.7524 16.3984 38.5486 17.6842 38.953 19.2688C39.3049 20.6483 39.3236 22.0027 39.3415 23.3123C39.3544 24.2521 39.368 25.3657 39.3705 26.4982V26.5029C39.368 27.6353 39.3544 28.7489 39.3415 29.6887C39.3236 30.9983 39.3051 32.3525 38.953 33.7322C38.5486 35.3168 37.7524 36.6027 36.5859 37.5536C35.3773 38.5392 33.8599 39.1137 32.1975 39.2148C30.4611 39.3205 28.6774 39.3719 26.7534 39.3719V39.3719ZM26.4971 37.3604C28.4822 37.3651 30.3048 37.315 32.0754 37.2074C33.3323 37.131 34.4222 36.7231 35.315 35.995C36.1403 35.3219 36.7087 34.3933 37.0043 33.235C37.2973 32.0866 37.3142 30.8536 37.3305 29.6612C37.3433 28.7277 37.3566 27.622 37.3594 26.5005C37.3566 25.3789 37.3433 24.2733 37.3305 23.3398C37.3142 22.1474 37.2973 20.9144 37.0043 19.7659C36.7087 18.6075 36.1403 17.6789 35.315 17.0058C34.4222 16.278 33.3323 15.87 32.0754 15.7936C30.3048 15.6858 28.4822 15.6361 26.5019 15.6404C24.5172 15.6357 22.6944 15.6858 20.9238 15.7936C19.6669 15.87 18.577 16.278 17.6842 17.0058C16.8589 17.6789 16.2905 18.6075 15.9949 19.7659C15.7019 20.9144 15.685 22.1472 15.6687 23.3398C15.6559 24.2741 15.6426 25.3804 15.6398 26.5029C15.6426 27.6204 15.6559 28.7269 15.6687 29.6612C15.685 30.8536 15.7019 32.0866 15.9949 33.235C16.2905 34.3933 16.8589 35.3219 17.6842 35.995C18.577 36.7229 19.6669 37.1308 20.9238 37.2072C22.6944 37.315 24.5176 37.3653 26.4971 37.3604V37.3604ZM26.4492 32.7854C22.9839 32.7854 20.1643 29.966 20.1643 26.5005C20.1643 23.035 22.9839 20.2156 26.4492 20.2156C29.9147 20.2156 32.7341 23.035 32.7341 26.5005C32.7341 29.966 29.9147 32.7854 26.4492 32.7854V32.7854ZM26.4492 22.2268C24.0928 22.2268 22.1755 24.1441 22.1755 26.5005C22.1755 28.8569 24.0928 30.7742 26.4492 30.7742C28.8059 30.7742 30.7229 28.8569 30.7229 26.5005C30.7229 24.1441 28.8059 22.2268 26.4492 22.2268V22.2268ZM33.438 18.2045C32.6051 18.2045 31.9296 18.8797 31.9296 19.7128C31.9296 20.546 32.6051 21.2212 33.438 21.2212C34.2711 21.2212 34.9464 20.546 34.9464 19.7128C34.9464 18.8797 34.2711 18.2045 33.438 18.2045Z" fill="url(#paint1_linear_401:5)"/>
<defs>
<linearGradient id="paint0_linear_401:5" x1="45.5" y1="8.49999" x2="7" y2="50" gradientUnits="userSpaceOnUse">
<stop stop-color="#9838BD"/>
<stop offset="0.505208" stop-color="#D62F7C"/>
<stop offset="1" stop-color="#FFB34D"/>
</linearGradient>
<linearGradient id="paint1_linear_401:5" x1="37.5" y1="14" x2="14" y2="39" gradientUnits="userSpaceOnUse">
<stop stop-color="#9238C1"/>
<stop offset="0.5" stop-color="#D22F84"/>
<stop offset="1" stop-color="#FEC751"/>
</linearGradient>
</defs>
</svg>
