<svg width="14" height="14" viewBox="0 0 14 14" fill="none" xmlns="http://www.w3.org/2000/svg">
<g clip-path="url(#clip0_135:816)">
<path d="M6.88146 13.4289C6.83723 13.4289 6.793 13.4289 6.74847 13.4287C5.70148 13.4312 4.73408 13.4046 3.79327 13.3474C2.93073 13.2949 2.1434 12.9968 1.51626 12.4854C0.911142 11.992 0.497909 11.3248 0.288083 10.5026C0.105466 9.78683 0.0957845 9.08418 0.086511 8.40457C0.0797851 7.91694 0.0728555 7.33913 0.0714288 6.75153C0.0728555 6.16149 0.0797851 5.58368 0.086511 5.09606C0.0957845 4.41654 0.105466 3.71389 0.288083 2.998C0.497909 2.17581 0.911142 1.50863 1.51626 1.01519C2.1434 0.503825 2.93073 0.205747 3.79337 0.153265C4.73418 0.0960956 5.70179 0.069396 6.75102 0.0719437C7.79832 0.0697017 8.76541 0.0960956 9.70622 0.153265C10.5688 0.205747 11.3561 0.503825 11.9832 1.01519C12.5885 1.50863 13.0016 2.17581 13.2114 2.998C13.394 3.71379 13.4037 4.41654 13.413 5.09606C13.4197 5.58368 13.4267 6.16149 13.4281 6.74909V6.75153C13.4267 7.33913 13.4197 7.91694 13.413 8.40457C13.4037 9.08408 13.3941 9.78673 13.2114 10.5026C13.0016 11.3248 12.5885 11.992 11.9832 12.4854C11.3561 12.9968 10.5688 13.2949 9.70622 13.3474C8.80526 13.4022 7.87974 13.4289 6.88146 13.4289ZM6.74847 12.3852C7.77844 12.3876 8.72414 12.3616 9.64283 12.3058C10.295 12.2661 10.8605 12.0545 11.3238 11.6767C11.752 11.3275 12.0469 10.8456 12.2003 10.2446C12.3523 9.64875 12.3611 9.00898 12.3696 8.3903C12.3762 7.90594 12.3831 7.3322 12.3845 6.75031C12.3831 6.16832 12.3762 5.59469 12.3696 5.11032C12.3611 4.49165 12.3523 3.85188 12.2003 3.25592C12.0469 2.65488 11.752 2.17306 11.3238 1.82383C10.8605 1.44616 10.295 1.2345 9.64283 1.19486C8.72414 1.13891 7.77844 1.11313 6.75092 1.11537C5.72115 1.11292 4.77535 1.13891 3.85666 1.19486C3.20445 1.2345 2.63897 1.44616 2.1757 1.82383C1.74749 2.17306 1.45257 2.65488 1.2992 3.25592C1.14716 3.85188 1.13839 4.49154 1.12994 5.11032C1.12331 5.59509 1.11638 6.16914 1.11496 6.75153C1.11638 7.33138 1.12331 7.90553 1.12994 8.3903C1.13839 9.00898 1.14716 9.64875 1.2992 10.2446C1.45257 10.8456 1.74749 11.3275 2.1757 11.6767C2.63897 12.0544 3.20445 12.266 3.85666 12.3057C4.77535 12.3616 5.72135 12.3877 6.74847 12.3852ZM6.72361 10.0113C4.92556 10.0113 3.46258 8.54846 3.46258 6.75031C3.46258 4.95216 4.92556 3.48929 6.72361 3.48929C8.52175 3.48929 9.98463 4.95216 9.98463 6.75031C9.98463 8.54846 8.52175 10.0113 6.72361 10.0113ZM6.72361 4.53282C5.50093 4.53282 4.50611 5.52763 4.50611 6.75031C4.50611 7.97299 5.50093 8.96781 6.72361 8.96781C7.94639 8.96781 8.9411 7.97299 8.9411 6.75031C8.9411 5.52763 7.94639 4.53282 6.72361 4.53282ZM10.3499 2.44576C9.91767 2.44576 9.56722 2.79612 9.56722 3.22841C9.56722 3.6607 9.91767 4.01105 10.3499 4.01105C10.7822 4.01105 11.1325 3.6607 11.1325 3.22841C11.1325 2.79612 10.7822 2.44576 10.3499 2.44576Z" fill="white"/>
</g>
<defs>
<clipPath id="clip0_135:816">
<rect width="13.3571" height="13.3571" fill="white" transform="translate(0.0714288 0.0712891)"/>
</clipPath>
</defs>
</svg>
