<svg width="14" height="10" viewBox="0 0 14 10" fill="none" xmlns="http://www.w3.org/2000/svg">
<path d="M12.3237 0.723145H1.96205C1.35158 0.723145 0.857142 1.22065 0.857142 1.82806V8.45752C0.857142 9.06853 1.35521 9.56243 1.96205 9.56243H12.3237C12.929 9.56243 13.4286 9.07062 13.4286 8.45752V1.82806C13.4286 1.22173 12.9361 0.723145 12.3237 0.723145ZM12.1689 1.45975C11.9432 1.68429 8.05829 5.54873 7.92415 5.68216C7.71545 5.89086 7.43799 6.00577 7.14286 6.00577C6.84772 6.00577 6.57027 5.89084 6.36087 5.68147C6.27066 5.59172 2.42864 1.76996 2.11679 1.45975H12.1689ZM1.59375 8.30759V1.97845L4.77683 5.14475L1.59375 8.30759ZM2.11726 8.82582L5.29908 5.66423L5.84071 6.20301C6.18853 6.55084 6.65097 6.74238 7.14286 6.74238C7.63474 6.74238 8.09718 6.55084 8.44432 6.2037L8.98663 5.66423L12.1685 8.82582H2.11726ZM12.692 8.30759L9.50889 5.14475L12.692 1.97845V8.30759Z" fill="white"/>
</svg>
