<svg width="20" height="20" viewBox="0 0 20 20" fill="none" xmlns="http://www.w3.org/2000/svg">
<path fill-rule="evenodd" clip-rule="evenodd" d="M10 0C8.34315 0 7 1.34315 7 3V7L3 7C1.34315 7 0 8.34315 0 10C0 11.6569 1.34315 13 3 13H7V17C7 18.6569 8.34315 20 10 20C11.6569 20 13 18.6569 13 17V13H17C18.6569 13 20 11.6569 20 10C20 8.34315 18.6569 7 17 7L13 7V3C13 1.34315 11.6569 0 10 0Z" fill="url(#paint0_linear_536:1266)"/>
<defs>
<linearGradient id="paint0_linear_536:1266" x1="4.5934" y1="2.50406" x2="15.0246" y2="18.3686" gradientUnits="userSpaceOnUse">
<stop stop-color="#D1B5FF"/>
<stop offset="0.536458" stop-color="#965EF2"/>
<stop offset="1" stop-color="#7E15B6"/>
</linearGradient>
</defs>
</svg>
