<svg aria-hidden="true" style="position: absolute; width: 0; height: 0; overflow: hidden;" version="1.1" xmlns="http://www.w3.org/2000/svg" xmlns:xlink="http://www.w3.org/1999/xlink">
<defs>
<symbol id="icon-mail" viewBox="0 0 45 32">
<path d="M39.436 2.314h-33.157c-1.954 0-3.536 1.592-3.536 3.536v21.214c0 1.955 1.594 3.536 3.536 3.536h33.157c1.937 0 3.536-1.574 3.536-3.536v-21.214c0-1.94-1.576-3.536-3.536-3.536zM38.94 4.671c-0.722 0.719-13.154 13.085-13.583 13.512-0.668 0.668-1.556 1.036-2.5 1.036s-1.832-0.368-2.502-1.038c-0.289-0.287-12.583-12.517-13.581-13.509h32.167zM5.1 26.584v-20.253l10.186 10.132-10.186 10.121zM6.775 28.243l10.182-10.117 1.733 1.724c1.113 1.113 2.593 1.726 4.167 1.726s3.054-0.613 4.165-1.724l1.735-1.726 10.182 10.117h-32.164zM40.614 26.584l-10.186-10.121 10.186-10.132v20.253z"></path>
</symbol>
<symbol id="icon-youtube" viewBox="0 0 32 32">
<path  d="M19.882 13.882l-6.666-3.647c-0.383-0.21-0.836-0.202-1.212 0.021s-0.6 0.616-0.6 1.053v7.232c0 0.435 0.223 0.828 0.596 1.051 0.195 0.116 0.411 0.175 0.628 0.175 0.198 0 0.397-0.049 0.58-0.148l6.666-3.584c0.396-0.213 0.643-0.624 0.645-1.074s-0.242-0.863-0.637-1.079zM13.173 17.631v-5.405l4.982 2.726-4.982 2.679z"></path>
<path d="M30.102 9.199l-0.001-0.014c-0.026-0.243-0.28-2.403-1.33-3.502-1.214-1.292-2.59-1.449-3.252-1.525-0.055-0.006-0.105-0.012-0.15-0.018l-0.053-0.006c-3.989-0.29-10.013-0.33-10.073-0.33l-0.005-0-0.005 0c-0.060 0-6.084 0.040-10.109 0.33l-0.053 0.006c-0.043 0.006-0.090 0.011-0.141 0.017-0.654 0.075-2.016 0.233-3.233 1.572-1 1.087-1.289 3.201-1.319 3.438l-0.003 0.031c-0.009 0.101-0.222 2.507-0.222 4.922v2.258c0 2.415 0.213 4.821 0.222 4.922l0.002 0.015c0.026 0.239 0.28 2.359 1.325 3.459 1.141 1.249 2.584 1.414 3.361 1.503 0.123 0.014 0.228 0.026 0.3 0.039l0.070 0.010c2.303 0.219 9.524 0.327 9.83 0.332l0.009 0 0.009-0c0.060-0 6.084-0.040 10.073-0.33l0.053-0.006c0.050-0.007 0.107-0.013 0.169-0.019 0.65-0.069 2.004-0.212 3.205-1.533 1-1.087 1.29-3.201 1.319-3.438l0.003-0.031c0.009-0.101 0.222-2.507 0.222-4.922v-2.258c-0-2.415-0.213-4.821-0.222-4.922zM28.556 16.378c0 2.235-0.195 4.537-0.214 4.749-0.075 0.582-0.38 1.92-0.867 2.449-0.751 0.826-1.523 0.908-2.087 0.968-0.068 0.007-0.131 0.014-0.188 0.021-3.858 0.279-9.654 0.322-9.921 0.323-0.299-0.004-7.415-0.113-9.647-0.321-0.114-0.019-0.238-0.033-0.368-0.048-0.661-0.076-1.566-0.179-2.261-0.944l-0.016-0.017c-0.479-0.499-0.775-1.75-0.85-2.425-0.014-0.16-0.214-2.489-0.214-4.756v-2.258c0-2.233 0.195-4.532 0.214-4.748 0.090-0.686 0.4-1.942 0.867-2.45 0.774-0.852 1.591-0.946 2.131-1.008 0.052-0.006 0.1-0.011 0.144-0.017 3.914-0.28 9.752-0.322 9.962-0.324 0.209 0.001 6.045 0.043 9.925 0.324 0.048 0.006 0.1 0.012 0.156 0.018 0.556 0.063 1.395 0.159 2.166 0.981l0.007 0.008c0.479 0.499 0.775 1.771 0.85 2.46 0.013 0.151 0.214 2.485 0.214 4.757v2.258z"></path>
</symbol>
<symbol id="icon-instagram" viewBox="0 0 32 32">
<path d="M15.729 30.695c-0.101 0-0.202 0-0.304-0-2.393 0.006-4.604-0.055-6.755-0.186-1.972-0.12-3.771-0.801-5.205-1.97-1.383-1.128-2.328-2.653-2.807-4.532-0.417-1.636-0.44-3.242-0.461-4.796-0.015-1.115-0.031-2.435-0.034-3.778 0.003-1.349 0.019-2.669 0.034-3.784 0.021-1.553 0.043-3.159 0.461-4.796 0.48-1.879 1.424-3.404 2.807-4.532 1.433-1.169 3.233-1.85 5.205-1.97 2.15-0.131 4.362-0.192 6.76-0.186 2.394-0.005 4.604 0.055 6.755 0.186 1.972 0.12 3.771 0.801 5.205 1.97 1.384 1.128 2.328 2.653 2.807 4.532 0.417 1.636 0.44 3.242 0.461 4.796 0.015 1.115 0.031 2.435 0.035 3.778v0.006c-0.003 1.343-0.019 2.664-0.035 3.778-0.021 1.553-0.043 3.159-0.461 4.796-0.48 1.879-1.424 3.404-2.807 4.532-1.433 1.169-3.233 1.85-5.205 1.97-2.059 0.125-4.175 0.186-6.457 0.186zM15.425 28.309c2.354 0.006 4.516-0.054 6.616-0.181 1.491-0.091 2.783-0.574 3.842-1.438 0.979-0.798 1.653-1.9 2.003-3.273 0.347-1.362 0.368-2.824 0.387-4.238 0.015-1.107 0.031-2.418 0.034-3.749-0.003-1.33-0.019-2.641-0.034-3.749-0.019-1.414-0.040-2.876-0.387-4.239-0.351-1.374-1.025-2.475-2.003-3.273-1.059-0.863-2.352-1.347-3.842-1.438-2.1-0.128-4.261-0.187-6.61-0.182-2.354-0.006-4.516 0.054-6.615 0.182-1.491 0.091-2.783 0.574-3.842 1.438-0.979 0.798-1.653 1.9-2.003 3.273-0.348 1.362-0.368 2.824-0.387 4.239-0.015 1.108-0.031 2.42-0.034 3.751 0.003 1.325 0.019 2.638 0.034 3.746 0.019 1.414 0.039 2.876 0.387 4.238 0.351 1.374 1.025 2.475 2.003 3.273 1.059 0.863 2.351 1.347 3.842 1.438 2.1 0.128 4.262 0.187 6.61 0.182zM15.368 22.883c-4.11 0-7.454-3.344-7.454-7.454s3.344-7.454 7.454-7.454c4.11 0 7.454 3.344 7.454 7.454s-3.344 7.454-7.454 7.454zM15.368 10.361c-2.795 0-5.069 2.274-5.069 5.069s2.274 5.069 5.069 5.069c2.795 0 5.069-2.274 5.069-5.069s-2.274-5.069-5.069-5.069zM23.657 5.59c-0.988 0-1.789 0.801-1.789 1.789s0.801 1.789 1.789 1.789c0.988 0 1.789-0.801 1.789-1.789s-0.801-1.789-1.789-1.789z"></path>
</symbol>
</defs>
</svg>
