<svg aria-hidden="true" style="position: absolute; width: 0; height: 0; overflow: hidden;" version="1.1" xmlns="http://www.w3.org/2000/svg" xmlns:xlink="http://www.w3.org/1999/xlink">
<defs>
<symbol id="icon-mail" viewBox="0 0 45 32">
<path d="M39.436 2.314h-33.157c-1.954 0-3.536 1.592-3.536 3.536v21.214c0 1.955 1.594 3.536 3.536 3.536h33.157c1.937 0 3.536-1.574 3.536-3.536v-21.214c0-1.94-1.576-3.536-3.536-3.536zM38.94 4.671c-0.722 0.719-13.154 13.085-13.583 13.512-0.668 0.668-1.556 1.036-2.5 1.036s-1.832-0.368-2.502-1.038c-0.289-0.287-12.583-12.517-13.581-13.509h32.167zM5.1 26.584v-20.253l10.186 10.132-10.186 10.121zM6.775 28.243l10.182-10.117 1.733 1.724c1.113 1.113 2.593 1.726 4.167 1.726s3.054-0.613 4.165-1.724l1.735-1.726 10.182 10.117h-32.164zM40.614 26.584l-10.186-10.121 10.186-10.132v20.253z"></path>
</symbol>
<symbol id="icon-youtube" viewBox="0 0 32 32">
<path  d="M19.882 13.882l-6.666-3.647c-0.383-0.21-0.836-0.202-1.212 0.021s-0.6 0.616-0.6 1.053v7.232c0 0.435 0.223 0.828 0.596 1.051 0.195 0.116 0.411 0.175 0.628 0.175 0.198 0 0.397-0.049 0.58-0.148l6.666-3.584c0.396-0.213 0.643-0.624 0.645-1.074s-0.242-0.863-0.637-1.079zM13.173 17.631v-5.405l4.982 2.726-4.982 2.679z"></path>
<path d="M30.102 9.199l-0.001-0.014c-0.026-0.243-0.28-2.403-1.33-3.502-1.214-1.292-2.59-1.449-3.252-1.525-0.055-0.006-0.105-0.012-0.15-0.018l-0.053-0.006c-3.989-0.29-10.013-0.33-10.073-0.33l-0.005-0-0.005 0c-0.060 0-6.084 0.040-10.109 0.33l-0.053 0.006c-0.043 0.006-0.090 0.011-0.141 0.017-0.654 0.075-2.016 0.233-3.233 1.572-1 1.087-1.289 3.201-1.319 3.438l-0.003 0.031c-0.009 0.101-0.222 2.507-0.222 4.922v2.258c0 2.415 0.213 4.821 0.222 4.922l0.002 0.015c0.026 0.239 0.28 2.359 1.325 3.459 1.141 1.249 2.584 1.414 3.361 1.503 0.123 0.014 0.228 0.026 0.3 0.039l0.070 0.010c2.303 0.219 9.524 0.327 9.83 0.332l0.009 0 0.009-0c0.060-0 6.084-0.040 10.073-0.33l0.053-0.006c0.050-0.007 0.107-0.013 0.169-0.019 0.65-0.069 2.004-0.212 3.205-1.533 1-1.087 1.29-3.201 1.319-3.438l0.003-0.031c0.009-0.101 0.222-2.507 0.222-4.922v-2.258c-0-2.415-0.213-4.821-0.222-4.922zM28.556 16.378c0 2.235-0.195 4.537-0.214 4.749-0.075 0.582-0.38 1.92-0.867 2.449-0.751 0.826-1.523 0.908-2.087 0.968-0.068 0.007-0.131 0.014-0.188 0.021-3.858 0.279-9.654 0.322-9.921 0.323-0.299-0.004-7.415-0.113-9.647-0.321-0.114-0.019-0.238-0.033-0.368-0.048-0.661-0.076-1.566-0.179-2.261-0.944l-0.016-0.017c-0.479-0.499-0.775-1.75-0.85-2.425-0.014-0.16-0.214-2.489-0.214-4.756v-2.258c0-2.233 0.195-4.532 0.214-4.748 0.090-0.686 0.4-1.942 0.867-2.45 0.774-0.852 1.591-0.946 2.131-1.008 0.052-0.006 0.1-0.011 0.144-0.017 3.914-0.28 9.752-0.322 9.962-0.324 0.209 0.001 6.045 0.043 9.925 0.324 0.048 0.006 0.1 0.012 0.156 0.018 0.556 0.063 1.395 0.159 2.166 0.981l0.007 0.008c0.479 0.499 0.775 1.771 0.85 2.46 0.013 0.151 0.214 2.485 0.214 4.757v2.258z"></path>
</symbol>
<symbol id="icon-instagram" viewBox="0 0 32 32">
<path d="M15.729 30.695c-0.101 0-0.202 0-0.304-0-2.393 0.006-4.604-0.055-6.755-0.186-1.972-0.12-3.771-0.801-5.205-1.97-1.383-1.128-2.328-2.653-2.807-4.532-0.417-1.636-0.44-3.242-0.461-4.796-0.015-1.115-0.031-2.435-0.034-3.778 0.003-1.349 0.019-2.669 0.034-3.784 0.021-1.553 0.043-3.159 0.461-4.796 0.48-1.879 1.424-3.404 2.807-4.532 1.433-1.169 3.233-1.85 5.205-1.97 2.15-0.131 4.362-0.192 6.76-0.186 2.394-0.005 4.604 0.055 6.755 0.186 1.972 0.12 3.771 0.801 5.205 1.97 1.384 1.128 2.328 2.653 2.807 4.532 0.417 1.636 0.44 3.242 0.461 4.796 0.015 1.115 0.031 2.435 0.035 3.778v0.006c-0.003 1.343-0.019 2.664-0.035 3.778-0.021 1.553-0.043 3.159-0.461 4.796-0.48 1.879-1.424 3.404-2.807 4.532-1.433 1.169-3.233 1.85-5.205 1.97-2.059 0.125-4.175 0.186-6.457 0.186zM15.425 28.309c2.354 0.006 4.516-0.054 6.616-0.181 1.491-0.091 2.783-0.574 3.842-1.438 0.979-0.798 1.653-1.9 2.003-3.273 0.347-1.362 0.368-2.824 0.387-4.238 0.015-1.107 0.031-2.418 0.034-3.749-0.003-1.33-0.019-2.641-0.034-3.749-0.019-1.414-0.040-2.876-0.387-4.239-0.351-1.374-1.025-2.475-2.003-3.273-1.059-0.863-2.352-1.347-3.842-1.438-2.1-0.128-4.261-0.187-6.61-0.182-2.354-0.006-4.516 0.054-6.615 0.182-1.491 0.091-2.783 0.574-3.842 1.438-0.979 0.798-1.653 1.9-2.003 3.273-0.348 1.362-0.368 2.824-0.387 4.239-0.015 1.108-0.031 2.42-0.034 3.751 0.003 1.325 0.019 2.638 0.034 3.746 0.019 1.414 0.039 2.876 0.387 4.238 0.351 1.374 1.025 2.475 2.003 3.273 1.059 0.863 2.351 1.347 3.842 1.438 2.1 0.128 4.262 0.187 6.61 0.182zM15.368 22.883c-4.11 0-7.454-3.344-7.454-7.454s3.344-7.454 7.454-7.454c4.11 0 7.454 3.344 7.454 7.454s-3.344 7.454-7.454 7.454zM15.368 10.361c-2.795 0-5.069 2.274-5.069 5.069s2.274 5.069 5.069 5.069c2.795 0 5.069-2.274 5.069-5.069s-2.274-5.069-5.069-5.069zM23.657 5.59c-0.988 0-1.789 0.801-1.789 1.789s0.801 1.789 1.789 1.789c0.988 0 1.789-0.801 1.789-1.789s-0.801-1.789-1.789-1.789z"></path>
</symbol>
<symbol id="icon-component__4" viewBox="0 0 33 32">
<path d="M21.593 0.046c-1.228 0.164-3.204 0.839-3.48 1.188-0.184 0.233-0.172 0.618 0.027 0.815 0.222 0.221 0.448 0.259 0.765 0.129 1.785-0.734 2.597-0.923 3.963-0.925 1.352-0.002 2.579 0.284 3.834 0.892 2.434 1.18 4.15 3.366 4.722 6.016 0.185 0.856 0.203 2.54 0.036 3.364-0.68 3.366-3.147 5.965-6.451 6.8-2.55 0.644-5.264 0.1-7.384-1.48-0.599-0.447-1.581-1.47-1.984-2.068-1.692-2.511-1.963-5.602-0.735-8.389 0.301-0.684 0.313-0.857 0.075-1.122-0.207-0.231-0.542-0.276-0.799-0.109-0.311 0.202-0.914 1.726-1.137 2.874-0.351 1.806-0.174 3.787 0.491 5.482l0.191 0.488-3.637 0.031c-3.867 0.033-3.998 0.043-5.016 0.371-2.266 0.731-4.114 2.632-4.781 4.92-0.744 2.549-0.042 5.267 1.846 7.152 1.055 1.053 2.286 1.71 3.838 2.049l0.166 0.036 0.042 1.464c0.026 0.922 0.070 1.527 0.119 1.633 0.137 0.298 0.549 0.433 0.844 0.277 0.077-0.041 1.239-0.795 2.582-1.675l2.441-1.601 4.722-0.034c4.614-0.033 4.734-0.037 5.225-0.174 1.43-0.398 2.4-0.956 3.414-1.964 1.028-1.021 1.599-2.009 1.977-3.42 0.125-0.466 0.143-0.688 0.14-1.746-0.004-1.235-0.005-1.247-0.317-2.3-0.033-0.111 0.048-0.182 0.528-0.464 0.853-0.502 1.399-0.925 2.108-1.634 0.957-0.957 1.606-1.908 2.117-3.103 2.486-5.812-1.024-12.398-7.279-13.659-0.732-0.148-2.493-0.21-3.212-0.114zM15.796 2.906c-0.256 0.254-0.257 0.565-0.002 0.848 0.489 0.544 1.346-0.056 1.007-0.706-0.201-0.387-0.69-0.456-1.006-0.142zM22.12 2.976c-0.48 0.189-0.881 0.569-1.129 1.069l-0.211 0.426v4.546l0.225 0.437c0.809 1.571 2.991 1.556 3.773-0.026l0.178-0.36v-2.329c0-2.252-0.005-2.339-0.139-2.628-0.189-0.406-0.624-0.859-1.015-1.058-0.45-0.229-1.209-0.264-1.682-0.078zM23.305 4.252c0.377 0.228 0.398 0.356 0.398 2.487s-0.020 2.259-0.398 2.487c-0.401 0.243-0.912 0.12-1.127-0.271-0.102-0.185-0.113-0.416-0.113-2.248 0-1.898 0.009-2.055 0.122-2.22 0.25-0.366 0.734-0.468 1.119-0.235zM18.561 8.002c-0.327 0.163-0.396 0.343-0.353 0.921 0.092 1.226 0.754 2.467 1.738 3.26 0.448 0.361 1.262 0.765 1.765 0.876 0.194 0.043 0.39 0.088 0.434 0.1 0.059 0.016 0.080 0.249 0.080 0.885v0.863h-1.063c-1.161 0-1.355 0.045-1.494 0.349-0.131 0.285-0.092 0.478 0.142 0.71l0.218 0.217h2.805c2.992 0 3.080-0.009 3.246-0.316 0.131-0.243 0.079-0.575-0.122-0.774l-0.188-0.187h-2.259v-1.72l0.177-0.039c1.075-0.235 1.744-0.59 2.457-1.302 0.879-0.877 1.327-1.82 1.396-2.939 0.032-0.517 0.025-0.554-0.134-0.742-0.437-0.516-1.133-0.167-1.133 0.568 0 0.152-0.044 0.446-0.098 0.652-0.303 1.155-1.21 2.069-2.403 2.42-0.452 0.133-1.352 0.134-1.808 0.001-0.833-0.243-1.629-0.856-2.041-1.571-0.231-0.402-0.46-1.208-0.46-1.623 0-0.213-0.040-0.318-0.177-0.462-0.229-0.242-0.448-0.287-0.725-0.149zM14.808 15.817c0.824 1.143 2.114 2.237 3.443 2.919 1.525 0.783 2.897 1.111 4.649 1.11 1.105-0 1.958-0.114 2.823-0.376 0.175-0.053 0.339-0.074 0.364-0.048 0.261 0.27 0.399 2.208 0.221 3.084-0.236 1.156-0.799 2.209-1.629 3.049-0.77 0.779-1.616 1.282-2.715 1.614-0.473 0.143-0.52 0.145-5.33 0.179l-4.853 0.034-2.057 1.353c-1.132 0.744-2.107 1.372-2.167 1.395-0.099 0.038-0.11-0.038-0.114-0.843-0.007-1.144-0.064-1.588-0.224-1.746-0.084-0.084-0.315-0.157-0.703-0.223-2.581-0.441-4.458-2.165-5.089-4.675-0.171-0.679-0.152-2.065 0.036-2.759 0.681-2.503 2.795-4.307 5.31-4.53 0.283-0.025 2.121-0.050 4.085-0.055l3.571-0.009 0.379 0.526zM5.323 17.574c-0.328 0.291-0.261 0.8 0.133 1.002 0.257 0.132 1.773 0.136 2.086 0.006 0.409-0.17 0.495-0.676 0.169-0.999l-0.188-0.186h-2l-0.2 0.178zM10.077 17.574c-0.366 0.325-0.23 0.897 0.246 1.036 0.158 0.046 0.816 0.064 1.901 0.050l1.66-0.020 0.195-0.216c0.169-0.188 0.19-0.251 0.159-0.478-0.024-0.174-0.092-0.31-0.204-0.406-0.166-0.142-0.194-0.144-1.963-0.144h-1.794l-0.2 0.178zM5.4 20.818c-0.082 0.057-0.191 0.203-0.242 0.324-0.083 0.198-0.081 0.244 0.023 0.454 0.063 0.129 0.188 0.27 0.276 0.313 0.125 0.062 1.645 0.080 6.833 0.080l6.672 0.001 0.218-0.217c0.234-0.232 0.272-0.425 0.142-0.71-0.167-0.365 0.146-0.349-7.102-0.349-6.063 0-6.684 0.009-6.82 0.104zM5.414 24.155c-0.361 0.22-0.404 0.698-0.089 0.978l0.198 0.175h3.465c2.55 0 3.51-0.020 3.634-0.076 0.193-0.087 0.352-0.353 0.352-0.59 0-0.089-0.084-0.255-0.187-0.37l-0.187-0.208-3.491-0.017c-3.359-0.016-3.498-0.012-3.694 0.107zM15.954 24.094c-0.192 0.078-0.41 0.375-0.41 0.556 0 0.205 0.164 0.511 0.318 0.593 0.080 0.043 1.219 0.065 3.228 0.064 2.844-0.001 3.116-0.011 3.241-0.112 0.329-0.264 0.365-0.621 0.093-0.923l-0.187-0.208-3.073-0.013c-1.69-0.007-3.134 0.012-3.209 0.043z"></path>
</symbol>
<symbol id="icon-component__3" viewBox="0 0 32 32">
<path d="M16.424 0.050c-0.402 0.095-0.989 0.441-1.274 0.75-0.145 0.157-0.356 0.48-0.469 0.717l-0.205 0.431-0.018 5.214-0.018 5.214h1.038v-5.013c0-3.747 0.020-5.080 0.079-5.279 0.105-0.355 0.641-0.89 0.996-0.994 0.384-0.113 12.986-0.113 13.37 0 0.355 0.105 0.891 0.64 0.996 0.994 0.114 0.386 0.114 27.429 0 27.815-0.105 0.355-0.641 0.89-0.996 0.994-0.2 0.059-1.698 0.079-6.050 0.079h-5.784l0.231-0.464c0.216-0.435 0.231-0.503 0.231-1.085 0-0.587-0.013-0.648-0.242-1.109-0.449-0.908-1.209-1.4-2.253-1.46l-0.577-0.033v-3.598h-1.035v3.619l-2.145-0.035-0.191-0.741c-0.441-1.71-1.317-3.39-2.443-4.683-0.39-0.448-0.393-0.456-0.394-0.849l-0-0.397 0.436-0.076c1.142-0.198 2.109-1.027 2.481-2.125l0.134-0.396h0.74l0.573 1.437c0.315 0.79 0.615 1.538 0.666 1.663l0.093 0.226 1.39-2.774 0.068 0.321c0.037 0.177 0.223 1.099 0.411 2.049l0.343 1.727h1.975v1.033h1.035v-3.099h-1.035v1.033h-1.134l-0.612-3.067c-0.337-1.687-0.627-3.067-0.646-3.067s-0.408 0.748-0.866 1.662l-0.832 1.662-0.728-1.839-1.39-0.001v-1.225l1.035-0.519v-0.486c0-1.877-0.582-3.984-1.483-5.375-0.145-0.223-0.263-0.414-0.263-0.425s0.14-0.11 0.312-0.221c0.656-0.424 1.136-1.095 1.338-1.866 0.419-1.606-0.61-3.3-2.266-3.731-0.535-0.139-4.053-0.141-4.717-0.002-1.158 0.241-2.2 0.902-2.844 1.803-0.337 0.471-0.639 1.088-0.755 1.538-0.070 0.273-0.137 0.363-0.44 0.597-1.010 0.779-1.718 1.821-2.115 3.114-0.167 0.544-0.174 0.627-0.175 2.020-0.001 1.63 0.067 2.025 0.509 2.956 0.391 0.824 0.676 1.178 2.149 2.666l1.441 1.457v1.508l-0.63 0.316c-0.347 0.174-0.805 0.445-1.018 0.603-1.246 0.919-1.762 2.644-1.24 4.151 0.397 1.146 1.497 3.915 1.699 4.277 0.446 0.799 1.345 1.594 2.21 1.956 0.977 0.409 0.294 0.39 13.205 0.37l11.736-0.017 0.432-0.204c0.601-0.284 0.976-0.65 1.266-1.238l0.241-0.488v-28.102l-0.241-0.488c-0.291-0.588-0.665-0.954-1.266-1.238l-0.432-0.204-6.692-0.010c-3.904-0.006-6.797 0.014-6.943 0.049zM19.617 2.562v0.517h7.242v-1.033h-7.242v0.517zM11.263 3.848c0.454 0.246 0.65 0.449 0.903 0.935 0.146 0.28 0.172 0.412 0.173 0.879 0.001 0.503-0.017 0.583-0.218 0.956-0.244 0.452-0.446 0.647-0.935 0.904-0.324 0.17-0.357 0.174-1.72 0.194-1.362 0.021-1.396 0.018-1.681-0.133-0.672-0.357-0.773-1.198-0.201-1.679 0.113-0.095 0.306-0.191 0.429-0.214l0.224-0.042v-1.033l-0.307 0.045c-0.741 0.107-1.437 0.708-1.667 1.44-0.297 0.944 0.204 2.035 1.121 2.439 0.149 0.066 0.271 0.153 0.271 0.193 0 0.277-0.508 1.455-0.883 2.049l-0.158 0.249-0.236-0.207c-0.836-0.733-2.014-0.624-2.701 0.25-0.418 0.532-0.581 1.015-0.581 1.725 0 1.013 0.349 1.653 1.298 2.379 0.317 0.243 0.585 0.475 0.594 0.517s-0.122 0.491-0.292 0.999l-0.31 0.924-1.262-1.279c-1.104-1.119-1.296-1.343-1.528-1.795-0.501-0.973-0.569-1.306-0.569-2.777 0-1.053 0.022-1.369 0.118-1.711 0.284-1.011 0.976-2.047 1.727-2.586 0.221-0.158 0.456-0.331 0.524-0.384s0.182-0.312 0.257-0.581c0.226-0.815 0.485-1.272 1.024-1.809 0.553-0.551 0.951-0.787 1.631-0.968 0.427-0.114 0.668-0.124 2.509-0.111l2.037 0.015 0.407 0.221zM17.128 4.202c-0.238 0.106-0.454 0.334-0.545 0.575-0.046 0.121-0.069 1.42-0.069 3.89v3.709h1.035v-7.232h11.38v19.63h-11.38v-1.55h-1.044l0.021 0.964c0.023 1.049 0.054 1.146 0.466 1.453 0.177 0.132 0.219 0.133 6.247 0.133s6.070-0.001 6.247-0.133c0.098-0.073 0.239-0.213 0.312-0.311l0.133-0.178v-20.386l-0.133-0.178c-0.073-0.098-0.214-0.238-0.312-0.311-0.177-0.132-0.231-0.133-6.171-0.147-4.896-0.012-6.028 0.002-6.186 0.072zM22.632 6.246c-0.409 0.103-0.991 0.447-1.274 0.753-0.145 0.157-0.356 0.48-0.469 0.717l-0.205 0.431v3.745l0.221 0.407c0.245 0.452 0.447 0.647 0.936 0.904 0.32 0.169 0.363 0.174 1.397 0.174s1.077-0.005 1.397-0.174c0.489-0.258 0.691-0.452 0.936-0.904l0.221-0.407v-3.752l-0.242-0.488c-0.437-0.883-1.213-1.401-2.167-1.446-0.276-0.013-0.614 0.005-0.752 0.039zM23.716 7.29c0.355 0.105 0.891 0.64 0.996 0.994 0.045 0.152 0.079 0.644 0.079 1.146v0.88h-3.104v-0.88c0-1.095 0.061-1.316 0.483-1.738 0.454-0.454 0.942-0.581 1.547-0.403zM10.812 9.1c0.852 1.149 1.374 2.687 1.534 4.516l0.044 0.496-1.049 0.527v0.827l-0.707 0.022c-0.764 0.024-0.908 0.080-1.197 0.467-0.208 0.278-0.185 0.996 0.046 1.44 0.203 0.391 0.558 0.756 0.91 0.936l0.249 0.127-0.142 0.151c-0.078 0.083-0.292 0.219-0.476 0.301-0.304 0.137-0.44 0.152-1.578 0.172l-1.245 0.021v1.023h1.035v0.969h-0.2c-0.484 0-1.914-0.363-2.661-0.675l-0.242-0.101v-1.648l0.55-1.644c0.302-0.904 0.549-1.673 0.547-1.71s-0.339-0.313-0.75-0.615c-0.411-0.302-0.848-0.664-0.969-0.804-0.547-0.632-0.532-1.638 0.034-2.231 0.477-0.501 0.745-0.439 1.564 0.364l0.624 0.613 0.194-0.246c0.675-0.855 1.407-2.234 1.648-3.103l0.147-0.532 1.839-0.001 0.251 0.339zM18.584 11.037c0.001 0.931 0.122 1.495 0.465 2.179 0.606 1.208 1.9 2.101 3.236 2.233l0.436 0.043v2.050h-2.586v1.033h6.207v-1.033h-2.586v-2.066l0.21-0.001c0.856-0.005 1.972-0.504 2.664-1.192 0.89-0.885 1.199-1.641 1.248-3.052l0.032-0.92h-1.051v0.697c0 1.12-0.244 1.803-0.883 2.472-0.683 0.715-1.388 0.964-2.738 0.964-1.315 0-1.908-0.195-2.635-0.867-0.694-0.642-0.986-1.402-0.986-2.569v-0.697h-1.035l0.001 0.726zM9.948 11.502c-0.321 0.32-0.093 0.875 0.359 0.875 0.126 0 0.259-0.059 0.359-0.159s0.159-0.232 0.159-0.358-0.059-0.258-0.159-0.358c-0.1-0.1-0.233-0.159-0.359-0.159s-0.259 0.059-0.359 0.159zM24.765 11.554c-0.048 0.246-0.204 0.472-0.453 0.658-0.16 0.119-0.27 0.133-1.074 0.133s-0.914-0.014-1.074-0.133c-0.249-0.185-0.404-0.411-0.453-0.658l-0.041-0.21h3.136l-0.041 0.21zM11.327 16.995c-0.017 0.267-0.049 0.503-0.071 0.525-0.066 0.066-0.645-0.257-0.768-0.429-0.064-0.089-0.134-0.256-0.157-0.371l-0.041-0.21h1.068l-0.031 0.485zM24.79 21.675v2.066h1.035v-4.133h-1.035v2.066zM20.652 21.675v1.033h1.035v-2.066h-1.035v1.033zM26.86 21.675v1.033h1.035v-2.066h-1.035v1.033zM22.721 21.675v0.517h1.035v-1.033h-1.035v0.517zM5.191 21.446c1.027 0.411 2.614 0.745 3.531 0.745 0.27 0 0.298 0.019 0.568 0.371 0.405 0.53 0.714 1.029 1.054 1.705 0.294 0.584 0.754 1.863 0.838 2.33l0.044 0.242h-3.63l-0.128-0.436c-0.070-0.24-0.278-0.959-0.461-1.598s-0.342-1.171-0.352-1.182c-0.011-0.011-0.236 0.043-0.501 0.12l-0.481 0.14 0.41 1.429c0.225 0.786 0.41 1.451 0.41 1.478s-0.189 0.050-0.42 0.050h-0.42v1.033h7.759v3.105l-7.21-0.039-0.428-0.166c-0.235-0.091-0.566-0.247-0.735-0.346-0.429-0.251-1.005-0.855-1.243-1.304-0.111-0.208-0.54-1.262-0.955-2.342-0.822-2.141-0.905-2.493-0.746-3.177 0.121-0.517 0.434-1.061 0.802-1.392 0.245-0.22 1.533-0.962 1.712-0.987 0.013-0.002 0.276 0.097 0.583 0.22zM21.263 26.93c-0.263 0.116-0.532 0.445-0.582 0.713-0.022 0.119-0.031 0.538-0.019 0.93 0.024 0.77 0.079 0.913 0.467 1.202 0.171 0.128 0.26 0.133 2.109 0.133s1.938-0.006 2.109-0.133c0.413-0.308 0.445-0.408 0.445-1.384s-0.032-1.076-0.445-1.384c-0.169-0.126-0.273-0.134-2.033-0.148-1.444-0.012-1.898 0.004-2.052 0.072zM16.474 27.953c0.355 0.105 0.891 0.64 0.996 0.994 0.179 0.605 0.053 1.088-0.404 1.544-0.421 0.421-0.642 0.482-1.739 0.482h-0.882v-3.099h0.882c0.503 0 0.996 0.034 1.148 0.079zM24.79 28.391v0.517h-3.104v-1.033h3.104v0.517z"></path>
</symbol>
<symbol id="icon-component__2" viewBox="0 0 33 32">
<path d="M11.017 0.205c-0.982 0.405-1.124 0.526-1.124 0.956 0 0.417 0.454 0.731 0.83 0.574 1.098-0.455 1.435-0.631 1.52-0.794 0.17-0.327 0.065-0.701-0.24-0.859-0.258-0.133-0.413-0.113-0.986 0.123zM19.098 1.332c-2.411 0.381-4.322 2.213-4.809 4.611-0.128 0.632-0.1 1.935 0.055 2.478l0.093 0.328-3.108 3.098c-1.709 1.704-3.108 3.064-3.108 3.022s0.029-0.152 0.064-0.244c0.144-0.377 0.202-1.036 0.128-1.45-0.139-0.782-0.631-1.558-1.197-1.888-0.541-0.316-1.314-0.208-1.871 0.261-0.476 0.401-3.155 4.673-4.099 6.536-1.16 2.289-1.248 2.69-1.248 5.696v2.194l0.177 0.255c0.097 0.14 1.081 1.441 2.186 2.89l2.009 2.635 0.336 0.1c0.49 0.146 1.412 0.191 2.042 0.099 1.677-0.244 3.32-1.143 5.424-2.966 0.389-0.337 1.925-1.832 3.413-3.324 2.529-2.533 2.715-2.736 2.842-3.082 0.412-1.125-0.186-2.378-1.276-2.671l-0.226-0.061-0.003-0.498c-0.006-0.904-0.503-1.66-1.254-1.909l-0.316-0.105 0.039-0.241c0.021-0.133 0.006-0.399-0.034-0.593-0.129-0.618-0.431-1.063-0.947-1.395l-0.268-0.173 2.353-2.344 0.352 0.601c0.194 0.331 1.601 2.762 3.127 5.404s2.859 4.882 2.963 4.979c0.183 0.171 0.188 0.191 0.188 0.811v0.635l-0.36 0.113c-1.031 0.323-1.913 1.306-2.138 2.384-0.14 0.669-0.061 1.037 0.259 1.203 0.264 0.136 8.069 0.136 8.332 0 0.336-0.173 0.411-0.593 0.232-1.288-0.282-1.096-1.093-1.979-2.111-2.298l-0.36-0.113v-3.241l0.915-0.526c4.532-2.606 4.808-2.772 4.9-2.95 0.052-0.1 0.094-0.245 0.094-0.322 0-0.174-1.121-2.138-1.358-2.379-0.243-0.247-0.576-0.243-0.831 0.011-0.305 0.305-0.265 0.548 0.235 1.408 0.232 0.4 0.398 0.749 0.369 0.776s-1.007 0.598-2.173 1.268l-2.12 1.219-0.019-0.384-0.019-0.384 0.381-0.406c1.229-1.31 1.209-3.205-0.048-4.458-1.279-1.275-3.229-1.275-4.508 0-1.255 1.251-1.278 3.147-0.054 4.451l0.381 0.406v1.962l-2.13-3.677c-1.171-2.022-2.142-3.724-2.157-3.781-0.021-0.079 0.886-0.63 3.838-2.329 2.126-1.223 3.873-2.215 3.883-2.204s0.268 0.453 0.574 0.982c0.306 0.528 0.629 1.025 0.719 1.105 0.238 0.211 0.566 0.193 0.802-0.043 0.372-0.371 0.392-0.324-1.777-4.072-1.080-1.867-2.067-3.545-2.193-3.728-0.51-0.744-1.489-1.549-2.363-1.945-0.883-0.399-2.29-0.594-3.223-0.447zM7.663 2.416c-0.404 0.318-0.977 0.96-1.024 1.145-0.115 0.457 0.322 0.873 0.792 0.755 0.195-0.049 1.142-0.937 1.279-1.2 0.18-0.344 0.067-0.702-0.275-0.876-0.245-0.125-0.45-0.078-0.772 0.176zM21.273 2.762c0.969 0.31 1.844 0.943 2.362 1.708 0.43 0.636 0.974 1.623 0.922 1.674-0.062 0.060-6.597 3.826-6.725 3.875-0.063 0.024-0.123-0.065-0.202-0.302-0.22-0.661-1.112-1.338-1.761-1.338-0.28 0-0.356-0.292-0.353-1.345 0.002-0.763 0.023-0.925 0.175-1.377 0.529-1.572 1.879-2.755 3.472-3.040 0.566-0.101 1.555-0.034 2.11 0.143zM11.039 3.386c-0.689 0.349-0.89 0.548-0.89 0.878 0 0.304 0.291 0.595 0.596 0.595 0.248 0 1.546-0.625 1.689-0.814 0.048-0.063 0.088-0.233 0.089-0.378 0.002-0.201-0.038-0.304-0.167-0.432-0.263-0.262-0.571-0.226-1.317 0.152zM18.461 4.216c-0.217 0.088-0.41 0.381-0.41 0.623 0 0.468 0.587 0.76 0.995 0.494 0.39-0.255 0.317-0.902-0.123-1.086-0.254-0.106-0.273-0.107-0.461-0.031zM20.587 5.525c-0.219 0.218-0.263 0.455-0.136 0.72 0.121 0.253 0.429 0.412 0.699 0.361 0.252-0.048 0.497-0.362 0.497-0.637 0-0.514-0.697-0.806-1.060-0.444zM5.187 5.561c-0.164 0.129-0.656 1.159-0.731 1.529-0.109 0.541 0.433 0.942 0.929 0.687 0.163-0.084 0.34-0.42 0.797-1.515 0.089-0.213 0.020-0.479-0.175-0.673-0.198-0.197-0.587-0.21-0.819-0.028zM8.362 5.758c-0.238 0.221-0.782 1.37-0.782 1.652 0 0.352 0.243 0.587 0.603 0.584 0.145-0.001 0.314-0.039 0.374-0.085 0.192-0.145 0.822-1.444 0.822-1.695 0-0.498-0.656-0.791-1.017-0.455zM18.101 6.965c-0.172 0.154-0.208 0.232-0.208 0.455 0 0.225 0.036 0.301 0.217 0.462 0.188 0.167 0.251 0.188 0.48 0.157 0.637-0.085 0.765-0.894 0.188-1.188-0.233-0.119-0.457-0.081-0.676 0.114zM25.597 7.81c0.165 0.285 0.288 0.53 0.273 0.545-0.111 0.11-7.713 4.439-7.753 4.415-0.064-0.039-0.617-0.998-0.603-1.044 0.016-0.053 7.625-4.426 7.709-4.43 0.041-0.002 0.209 0.23 0.374 0.515zM16.271 9.919c0.17 0.189 0.185 0.243 0.159 0.558l-0.029 0.348-4.053 4.046c-2.736 2.731-4.067 4.103-4.096 4.222-0.118 0.484 0.307 0.907 0.79 0.787 0.114-0.028 0.838-0.701 2.049-1.903 1.803-1.791 1.883-1.86 2.152-1.888 0.356-0.036 0.666 0.145 0.802 0.471 0.207 0.494 0.196 0.509-1.966 2.678-1.089 1.092-1.999 2.051-2.023 2.131-0.062 0.205 0.072 0.562 0.255 0.682 0.085 0.056 0.263 0.101 0.395 0.101 0.227 0 0.327-0.087 1.977-1.723 1.893-1.877 1.977-1.937 2.496-1.794 0.27 0.074 0.402 0.239 0.464 0.581 0.082 0.449-0.088 0.668-1.986 2.552-1.704 1.692-1.773 1.77-1.773 2.006 0 0.329 0.095 0.485 0.364 0.597 0.172 0.072 0.273 0.078 0.429 0.027 0.133-0.044 0.751-0.614 1.777-1.638 1.816-1.813 1.824-1.818 2.523-1.535 0.269 0.109 0.385 0.648 0.212 0.979-0.050 0.095-1.358 1.427-2.907 2.959-3.006 2.974-3.915 3.767-5.226 4.559-1.344 0.811-2.642 1.151-3.678 0.961-0.23-0.042-0.341-0.174-2.168-2.573l-1.926-2.529v-1.966c0-2.121 0.032-2.42 0.358-3.32 0.515-1.423 1.815-3.709 3.925-6.902 0.727-1.1 0.908-1.217 1.221-0.795 0.283 0.381 0.364 0.616 0.362 1.038-0.003 0.627-0.1 0.822-2.004 4.032-0.649 1.095-0.697 1.272-0.427 1.592 0.18 0.213 0.428 0.285 0.672 0.195 0.090-0.033 2.332-2.217 4.982-4.854s4.876-4.826 4.946-4.866c0.071-0.040 0.271-0.062 0.446-0.048 0.26 0.021 0.351 0.063 0.505 0.235zM29.363 13.017c-0.557 0.308-0.324 1.191 0.314 1.191 0.326 0 0.642-0.313 0.642-0.634 0-0.481-0.533-0.791-0.957-0.557zM25.915 15.197c0.671 0.327 1.028 0.918 1.030 1.702 0.001 0.399-0.029 0.543-0.18 0.849-0.105 0.212-0.291 0.457-0.439 0.576-0.142 0.114-0.334 0.27-0.429 0.346l-0.171 0.139-0.018 3.080-0.018 3.080h-1.281l-0.004-2.994c-0.003-1.647-0.026-3.049-0.053-3.116s-0.205-0.241-0.396-0.387c-0.642-0.489-0.934-1.214-0.781-1.939 0.264-1.255 1.585-1.899 2.74-1.335zM24.738 16.348c-0.557 0.308-0.324 1.191 0.314 1.191 0.326 0 0.642-0.313 0.642-0.634 0-0.481-0.533-0.791-0.956-0.557zM26.893 26.344c0.428 0.127 0.821 0.419 1.053 0.784 0.104 0.164 0.19 0.321 0.19 0.35s-1.387 0.051-3.083 0.051-3.083-0.023-3.083-0.051c0-0.125 0.393-0.652 0.609-0.816 0.478-0.364 0.746-0.409 2.447-0.411 1.188-0.002 1.621 0.020 1.868 0.093z"></path>
</symbol>
<symbol id="icon-component__1" viewBox="0 0 26 32">
<path d="M0.821 0.149c-0.362 0.176-0.528 0.349-0.694 0.727-0.123 0.279-0.124 0.363-0.125 8.455-0.001 7.894 0.003 8.178 0.112 8.318 0.158 0.201 0.527 0.201 0.685 0 0.11-0.14 0.114-0.424 0.114-8.274v-8.129l0.299-0.307h5.546l0.149-0.154c0.082-0.084 0.149-0.227 0.149-0.316s-0.067-0.231-0.149-0.316l-0.149-0.154-5.632 0.001-0.304 0.147zM8.421 0.154c-0.082 0.084-0.149 0.227-0.149 0.316s0.067 0.231 0.149 0.316l0.149 0.154h6.088v3.691h-5.404c-5.158 0-5.409 0.005-5.505 0.114-0.144 0.164-0.13 0.527 0.027 0.674 0.124 0.115 0.315 0.12 5.505 0.136l5.377 0.017v0.722c0 0.886 0.071 1.194 0.353 1.533 0.422 0.507 0.314 0.493 3.768 0.494l3.057 0.001v4.73c0 3.76-0.016 4.724-0.076 4.697-1.347-0.584-2.319-0.779-3.543-0.708-1.791 0.104-3.373 0.817-4.686 2.114l-0.497 0.491h-4.592c-4.371 0-4.597 0.006-4.692 0.114-0.144 0.164-0.13 0.527 0.027 0.674 0.123 0.114 0.297 0.12 4.367 0.136l4.239 0.017-0.281 0.577c-0.155 0.317-0.312 0.669-0.349 0.78l-0.069 0.203h-1.666c-1.593 0-1.671 0.006-1.777 0.126-0.152 0.173-0.141 0.475 0.023 0.644 0.129 0.133 0.182 0.138 1.653 0.157l1.519 0.020-0.046 0.356c-0.025 0.196-0.043 0.736-0.040 1.2 0.008 1.248 0.22 2.154 0.763 3.269l0.236 0.485h-11.138l-0.299-0.307v-4.28c0-4.235-0.001-4.282-0.126-4.445-0.174-0.228-0.486-0.228-0.66 0-0.125 0.163-0.126 0.209-0.126 4.489l0.001 4.324 0.143 0.313c0.171 0.373 0.339 0.543 0.707 0.714 0.269 0.126 0.366 0.128 6.196 0.129l5.923 0.001 0.544 0.533c1.076 1.053 2.248 1.7 3.638 2.007 0.694 0.153 2.267 0.156 2.91 0.004 1.492-0.351 2.67-1.011 3.693-2.069 1.863-1.926 2.562-4.565 1.91-7.215-0.076-0.308-0.167-0.527-0.248-0.596-0.283-0.242-0.723-0.048-0.723 0.318 0 0.098 0.059 0.4 0.131 0.673 0.187 0.706 0.19 2.337 0.006 3.031-0.338 1.272-0.894 2.285-1.715 3.13s-1.807 1.416-3.043 1.764c-0.671 0.189-2.261 0.186-2.942-0.005-2.425-0.681-4.073-2.38-4.74-4.889-0.181-0.681-0.181-2.326 0-3.007 0.338-1.272 0.894-2.285 1.715-3.13 1.438-1.479 3.518-2.182 5.467-1.847 1.683 0.29 2.943 1.055 4.154 2.523 0.259 0.314 0.499 0.355 0.713 0.121 0.201-0.22 0.168-0.453-0.12-0.837-0.29-0.387-1.13-1.216-1.394-1.376l-0.179-0.109v-5.245c0-5.062-0.004-5.253-0.118-5.477-0.177-0.349-7.097-7.431-7.377-7.55-0.194-0.082-0.691-0.096-3.455-0.096h-3.229l-0.149 0.154zM18.506 7.369l-2.661 0.017-0.274-0.323v-5.467l5.597 5.756-2.662 0.017zM3.75 7.247c-0.144 0.164-0.13 0.527 0.027 0.674 0.121 0.113 0.252 0.119 2.431 0.119 2.29 0 2.304-0.001 2.437-0.137 0.164-0.169 0.175-0.471 0.023-0.644-0.107-0.122-0.183-0.126-2.464-0.126-2.203 0-2.36 0.007-2.454 0.114zM3.75 9.75c-0.144 0.164-0.13 0.527 0.027 0.674 0.124 0.116 0.338 0.119 7.602 0.119h7.474l0.134-0.137c0.164-0.169 0.175-0.471 0.023-0.644-0.11-0.125-0.172-0.126-7.634-0.126-7.212 0-7.528 0.005-7.624 0.114zM3.75 12.252c-0.144 0.164-0.13 0.527 0.027 0.674 0.122 0.114 0.287 0.12 3.695 0.138 1.962 0.010 3.658 0.002 3.768-0.019 0.403-0.076 0.579-0.511 0.316-0.782-0.119-0.122-0.203-0.125-3.914-0.125-3.597 0-3.797 0.006-3.893 0.114zM12.717 12.303c-0.164 0.215-0.159 0.352 0.021 0.567l0.147 0.176h5.968l0.134-0.137c0.164-0.169 0.175-0.471 0.023-0.644-0.108-0.123-0.182-0.126-3.138-0.126h-3.027l-0.126 0.165zM3.75 14.755c-0.144 0.164-0.13 0.527 0.027 0.674 0.124 0.116 0.338 0.119 7.602 0.119h7.474l0.134-0.137c0.164-0.169 0.175-0.471 0.023-0.644-0.11-0.125-0.172-0.126-7.634-0.126-7.212 0-7.528 0.005-7.624 0.114zM3.75 17.257c-0.144 0.164-0.13 0.527 0.027 0.674 0.121 0.113 0.276 0.12 3.026 0.138 1.594 0.010 2.989 0.002 3.099-0.019 0.404-0.076 0.579-0.511 0.316-0.782-0.118-0.122-0.203-0.125-3.245-0.125-2.948 0-3.129 0.006-3.224 0.114zM18.339 19.65c-0.391 0.077-0.56 0.164-0.844 0.434-0.407 0.386-0.532 0.75-0.57 1.665l-0.032 0.763-0.75 0.022c-1.042 0.030-1.030 0.017-1.017 1.169 0.008 0.746 0.031 0.927 0.168 1.348 0.413 1.266 1.377 2.15 2.665 2.443 0.165 0.038 0.167 0.044 0.167 0.537v0.499h-0.452c-0.416 0-0.462 0.013-0.578 0.165-0.164 0.215-0.159 0.352 0.021 0.567l0.147 0.176h2.697l0.147-0.176c0.18-0.215 0.185-0.352 0.021-0.567-0.116-0.152-0.162-0.165-0.578-0.165h-0.452v-0.499c0-0.494 0.002-0.5 0.167-0.537 1.040-0.237 1.945-0.922 2.4-1.817 0.343-0.674 0.426-1.053 0.435-2.002 0.011-1.12 0.019-1.111-1.019-1.141l-0.75-0.022-0.032-0.763c-0.025-0.599-0.061-0.833-0.168-1.087-0.294-0.702-1.089-1.15-1.794-1.011zM19.136 20.797l0.207 0.213v3.278l-0.207 0.213c-0.182 0.187-0.244 0.213-0.523 0.213s-0.341-0.025-0.523-0.213l-0.207-0.213v-3.278l0.207-0.213c0.182-0.187 0.244-0.213 0.523-0.213s0.341 0.025 0.523 0.213zM3.75 22.263c-0.144 0.164-0.13 0.527 0.027 0.674 0.119 0.11 0.239 0.119 1.648 0.119h1.52l0.116-0.148c0.141-0.179 0.15-0.432 0.022-0.62-0.094-0.138-0.111-0.139-1.663-0.139-1.442 0-1.577 0.009-1.669 0.114zM16.936 23.916c0.102 1.084 0.731 1.735 1.676 1.735s1.574-0.651 1.676-1.735l0.043-0.454h0.85l-0.024 0.615c-0.021 0.536-0.049 0.667-0.217 1.017-0.249 0.519-0.73 1.013-1.233 1.266-0.375 0.189-0.433 0.199-1.096 0.199s-0.72-0.010-1.095-0.2c-0.506-0.255-0.986-0.747-1.233-1.264-0.168-0.351-0.196-0.482-0.217-1.018l-0.024-0.615h0.85l0.043 0.454z"></path>
</symbol>
</defs>
</svg>
