<svg width="15" height="15" viewBox="0 0 15 15" fill="none" xmlns="http://www.w3.org/2000/svg">
<g clip-path="url(#clip0_135:811)">
<path d="M9.31972 6.50737L6.19523 4.79778C6.01557 4.69948 5.80323 4.70315 5.62713 4.80749C5.45093 4.91194 5.34583 5.09645 5.34583 5.30125V8.69108C5.34583 8.8949 5.45028 9.07909 5.6253 9.18365C5.71669 9.23825 5.81801 9.26565 5.91954 9.26565C6.01255 9.26565 6.10578 9.24267 6.19156 9.19649L9.31616 7.51636C9.50164 7.41655 9.61742 7.22373 9.61828 7.013C9.61904 6.80226 9.50466 6.60858 9.31972 6.50737ZM6.17462 8.26465V5.73113L8.50981 7.00889L6.17462 8.26465Z" fill="white"/>
<path d="M14.1102 4.31193L14.1096 4.30546C14.0976 4.19162 13.9784 3.17907 13.4861 2.66406C12.9172 2.0583 12.2721 1.98471 11.9619 1.94943C11.9362 1.94651 11.9127 1.94382 11.8917 1.94101L11.867 1.93842C9.99724 1.80247 7.17358 1.78391 7.14531 1.7838L7.14283 1.78369L7.14035 1.7838C7.11208 1.78391 4.28842 1.80247 2.40188 1.93842L2.37695 1.94101C2.35688 1.94371 2.33476 1.94619 2.3107 1.949C2.00405 1.98439 1.36592 2.05808 0.795338 2.68575C0.326508 3.19526 0.190985 4.18612 0.177065 4.29747L0.175447 4.31193C0.171239 4.3593 0.0714302 5.48698 0.0714302 6.61908V7.67738C0.0714302 8.80948 0.171239 9.93716 0.175447 9.98463L0.176202 9.99175C0.188179 10.1038 0.307302 11.0977 0.79728 11.613C1.33225 12.1984 2.00869 12.2759 2.37253 12.3176C2.43004 12.3242 2.47957 12.3298 2.51334 12.3357L2.54603 12.3402C3.62558 12.443 7.01033 12.4936 7.15384 12.4956L7.15815 12.4957L7.16247 12.4956C7.19074 12.4955 10.0143 12.4769 11.884 12.341L11.9087 12.3384C11.9323 12.3353 11.9589 12.3325 11.988 12.3294C12.2929 12.2971 12.9276 12.2298 13.4903 11.6107C13.9592 11.1011 14.0948 10.1102 14.1086 9.99898L14.1102 9.98452C14.1144 9.93705 14.2143 8.80948 14.2143 7.67738V6.61908C14.2142 5.48698 14.1144 4.35941 14.1102 4.31193ZM13.3854 7.67738C13.3854 8.72521 13.2939 9.80433 13.2853 9.90338C13.2501 10.1763 13.1072 10.8032 12.8787 11.0515C12.5266 11.4389 12.1648 11.4773 11.9006 11.5053C11.8687 11.5086 11.8391 11.5119 11.8124 11.5152C10.0039 11.646 7.28688 11.6661 7.16171 11.6668C7.02133 11.6648 3.68611 11.6137 2.63947 11.5165C2.58585 11.5078 2.5279 11.5011 2.46683 11.4942C2.15705 11.4587 1.733 11.4101 1.40692 11.0515L1.39926 11.0433C1.17483 10.8094 1.03596 10.2232 1.00067 9.90662C0.994092 9.83174 0.900218 8.73988 0.900218 7.67738V6.61908C0.900218 5.57243 0.991502 4.4945 1.00035 4.3934C1.04232 4.07196 1.18799 3.48303 1.40692 3.245C1.7699 2.84577 2.15263 2.80153 2.40576 2.77228C2.42993 2.76948 2.45248 2.76689 2.47331 2.76419C4.30806 2.63277 7.04464 2.61324 7.14283 2.61248C7.24102 2.61313 9.97664 2.63277 11.7951 2.76419C11.8174 2.767 11.8418 2.7698 11.868 2.77282C12.1284 2.8025 12.5219 2.84738 12.8831 3.23259L12.8864 3.23615C13.1108 3.46997 13.2497 4.06645 13.285 4.3894C13.2912 4.46008 13.3854 5.55431 13.3854 6.61908V7.67738Z" fill="white"/>
</g>
<defs>
<clipPath id="clip0_135:811">
<rect width="14.1429" height="14.1429" fill="white" transform="translate(0.0714302 0.0712891)"/>
</clipPath>
</defs>
</svg>
